<?xml version="1.0" encoding="utf-8"?>
<!-- Generator: Adobe Illustrator 22.0.1, SVG Export Plug-In . SVG Version: 6.00 Build 0)  -->
<svg version="1.1" id="Capa_1" xmlns="http://www.w3.org/2000/svg" xmlns:xlink="http://www.w3.org/1999/xlink" x="0px" y="0px"
	 viewBox="0 0 83.5 94.3" style="enable-background:new 0 0 83.5 94.3;" xml:space="preserve">
<style type="text/css">
	.st0{fill:#BCECE9;}
	.st1{fill:#6A86B0;}
	.st2{fill:#E892BF;}
	.st3{fill:#FFFFFF;}
</style>
<g>
	<g>
		<path class="st0" d="M49.6,19.1C41.6,23,32,22.3,24,26.2c-3.9,1.9-7.1,4.9-10.2,7.9c-4.4,4.4-8.7,9.5-9.9,15.7
			c-0.5,2.6-0.4,5.2-0.1,7.9c1.6,11.8,9.4,22.4,19.9,27.9s23.4,6.1,34.5,1.8c2-0.8,3.9-1.7,5.5-3c1.5-1.3,2.7-2.9,3.7-4.5
			c2.5-4.1,4.3-8.6,5.2-13.3c2.1-10.7-0.2-21.7-2.7-32.4c0,0-7,18.8-22,8.4C35.2,33.5,49.6,19.1,49.6,19.1z"/>
		<g>
			<path class="st0" d="M49.3,18.4c-6.8,2.6-14.2,2.7-21.1,4.7c-7,2-12.3,6.5-17.2,11.8c-4.2,4.5-8,9.8-8.8,16.1
				c-0.8,6.6,1.1,13.6,4.2,19.3c6,11.3,17,19,29.5,21c11.9,2,27-0.4,33.5-11.6c8.2-14.3,5.7-30.3,2.2-45.7c-0.3-1.5-2.5-1.9-3.1-0.3
				c-3.3,8.6-11.7,13.7-19.9,7.3c-7.4-5.7-3.1-15.5,2-20.7c1.4-1.4-0.5-3.8-1.9-2.4c-7,7-11.5,18.6-2,25.8
				c9.9,7.6,20.8,1.8,24.9-8.9c-1-0.1-2.1-0.2-3.1-0.3c2.7,11.7,5.4,24.2,1.7,36c-2.1,6.7-5.6,12.9-12.4,15.5
				c-5.5,2.1-11.4,3-17.3,2.6C28.5,87.9,17.7,81.9,11,71.9c-3.5-5.3-5.9-11.8-5.8-18.2c0-6.6,3.6-12,8-16.7
				c5.3-5.7,11.1-10.2,18.8-12.1c6.1-1.5,12.3-2.2,17.9-5.1C50.7,19.4,50.2,18.1,49.3,18.4z"/>
		</g>
	</g>
	<g>
		<path class="st1" d="M65.8,14.3c-8.6-1.6-17.4,2.4-21.8,10c-1.9,3.2-3.2,7.1-2.8,10.9c0.5,4.6,3.8,7.5,7.5,9.8
			c6.7,4.2,15.1,2.9,19.4-4.1c4.9-7.9,1.6-18.5-0.5-26.8c-0.5-1.8-3.1-1.5-2.8,0.4c0.8,6.1,3.4,12.7,2.7,18.9
			c-0.9,7.2-7.6,13.4-15,10.1c-3.6-1.6-7.7-4.5-8.1-8.7c-0.3-3.5,1.3-7.4,3.2-10.2c4.2-6,11-8.7,18.1-8.5
			C66.7,16.1,66.9,14.6,65.8,14.3L65.8,14.3z"/>
	</g>
	<g>
		<g>
			<path class="st1" d="M67,14.4c-0.3-1.9-0.1-3.7,0.5-5.6c0.2-0.7,1-3.9,1.8-4.3c0.6-0.3,0.2,0.3,0.2,0.8c0,1-0.4,2.2-0.7,3.1
				c-0.7,2-1.8,3.7-3.1,5.3c-0.8,1,0.5,2.1,1.5,1.8c1.6-0.6,11-4.7,11.8-3.7c0.6,0.8-4.3,1.3-5,1.3c-2.5,0.2-4.9,0.3-7.4,0.2
				c-1.7,0-1.9,2.7-0.2,2.7c3.5,0,17.2,1,16.5-5.2c-0.3-2.3-2.3-2.6-4.1-2.1c-4.3,1.3-8.4,3.1-12.6,4.6c0.5,0.6,1,1.2,1.5,1.8
				c2.2-2.7,3.6-5.7,4.1-9.1c0.3-1.7,0.4-5.2-2.4-5c-2.2,0.2-3.1,3.6-3.7,5.3c-1.1,2.9-1.5,5.8-0.3,8.7C65.8,15.8,67.2,15.3,67,14.4
				L67,14.4z"/>
		</g>
		<g>
			<path class="st1" d="M65.8,15.4c2.1,2.1,4.5,3.5,7.2,4.7c3.3,1.5,6.8,3.5,10.5,3.9c0.5,0.1,0.7-0.6,0.3-0.9
				c-4.8-4-11.9-5.2-17.3-8.4C66,14.4,65.4,15,65.8,15.4L65.8,15.4z"/>
		</g>
		<g>
			<path class="st1" d="M66.3,16.6c1.7,1.8,3.4,3.6,5,5.5c1.6,1.9,2.9,4.1,4.7,5.8c0.6,0.6,1.6,0,1.2-0.8
				c-1.9-4.4-6.5-8.3-10.2-11.2C66.5,15.5,65.8,16.2,66.3,16.6L66.3,16.6z"/>
		</g>
	</g>
	<path class="st1" d="M27.5,74.7c-2-8.3-3.7-17.2-0.6-25.2c0.4-1,1-2.1,2-2.6c0.5-0.2,1-0.3,1.5-0.2c2.6,0.1,4.7,2.4,5.4,4.9
		c0.7,2.5,0.4,5.2,0,7.7c3.6-1.3,7.6-1.1,11.1,0.5c1.3,0.6,2.6,1.5,3.2,2.8c0.9,1.8,0.3,4-0.8,5.7c-1,1.6-2.4,2.9-4,3.7
		C40,75,33.3,73,27.5,74.7"/>
	<g>
		<g>
			<path class="st2" d="M28.9,73.1c-0.1,0.3-0.1,0.6-0.1,1c0,0.3-0.1,0.6,0,1c0,0.2,0.3,0.3,0.4,0.1c0.4-0.5,0.3-1.5,0.1-2
				C29.3,72.9,29,72.9,28.9,73.1L28.9,73.1z"/>
		</g>
		<g>
			<path class="st2" d="M31,72.7c-0.2,0.5-0.2,0.9-0.2,1.4c0,0.4,0,0.9,0.3,1.2c0.1,0.1,0.3,0.1,0.3-0.1c0.2-0.4,0-0.8,0-1.2
				c0-0.5,0-0.9,0-1.4C31.3,72.6,31,72.6,31,72.7L31,72.7z"/>
		</g>
		<g>
			<path class="st2" d="M32.8,72.7c0,0.6,0,1.4,0.3,2c0.1,0.2,0.3,0.2,0.4,0c0.1-0.6,0-1.3-0.2-2C33.3,72.4,32.8,72.4,32.8,72.7
				L32.8,72.7z"/>
		</g>
		<g>
			<path class="st2" d="M35,73.2c0.2,0.6,0.3,1.3,0.7,1.9c0.1,0.2,0.4,0,0.4-0.2c-0.1-0.6-0.4-1.3-0.7-1.9
				C35.3,72.9,34.9,73,35,73.2L35,73.2z"/>
		</g>
		<g>
			<path class="st2" d="M37.7,73.2c0.1,0.4,0.2,0.8,0.3,1.2c0.1,0.3,0.2,0.7,0.4,0.9c0.1,0.1,0.3,0.1,0.3-0.1c0-0.3-0.1-0.7-0.2-1
				c-0.1-0.4-0.3-0.8-0.5-1.2C37.9,72.9,37.6,73,37.7,73.2L37.7,73.2z"/>
		</g>
		<g>
			<path class="st2" d="M39.5,73.3c0.2,0.5,0.3,1.1,0.7,1.5c0.1,0.2,0.4,0,0.3-0.2c-0.1-0.5-0.4-1.1-0.6-1.6
				C39.7,72.9,39.4,73.1,39.5,73.3L39.5,73.3z"/>
		</g>
		<g>
			<path class="st2" d="M41.6,72.8c0.1,0.4,0.2,0.9,0.4,1.3c0.2,0.3,0.4,0.8,0.7,0.9c0.1,0,0.2-0.1,0.2-0.2c0-0.3-0.3-0.6-0.5-0.9
				c-0.2-0.4-0.4-0.7-0.5-1.2C41.9,72.5,41.5,72.6,41.6,72.8L41.6,72.8z"/>
		</g>
		<g>
			<path class="st2" d="M43.4,72.3c0.2,0.6,0.4,1.3,1,1.7c0.2,0.1,0.4-0.1,0.3-0.2c-0.3-0.6-0.7-1-0.9-1.6
				C43.6,72,43.4,72.1,43.4,72.3L43.4,72.3z"/>
		</g>
		<g>
			<path class="st2" d="M45,71c0.3,0.4,0.7,0.9,1,1.4c0.2,0.3,0.4,0.8,0.8,0.8c0.1,0,0.2,0,0.2-0.1c0.2-0.4-0.2-0.8-0.4-1.1
				c-0.3-0.5-0.7-0.8-1.1-1.2C45.2,70.6,44.9,70.8,45,71L45,71z"/>
		</g>
		<g>
			<path class="st2" d="M47.2,70.1c0.4,0.4,0.9,1.1,1.5,1.2c0.1,0,0.3-0.1,0.2-0.3c-0.2-0.6-0.9-1-1.4-1.4
				C47.4,69.4,47,69.8,47.2,70.1L47.2,70.1z"/>
		</g>
		<g>
			<path class="st2" d="M48.5,68.5c0.4,0.2,0.9,0.3,1.3,0.4c0.4,0.1,0.8,0.3,1.3,0.3c0.2,0,0.4-0.3,0.2-0.5
				c-0.7-0.5-1.9-0.6-2.7-0.6C48.3,68.1,48.2,68.4,48.5,68.5L48.5,68.5z"/>
		</g>
		<g>
			<path class="st2" d="M49.9,66.7c0.7,0,1.6,0.1,2.4-0.1c0.2-0.1,0.2-0.4,0-0.5c-0.7-0.2-1.6,0.1-2.4,0.2
				C49.6,66.3,49.7,66.7,49.9,66.7L49.9,66.7z"/>
		</g>
		<g>
			<path class="st2" d="M49,64c0.8-0.1,2.2-0.6,2.5-1.5c0.1-0.2-0.1-0.3-0.3-0.3c-0.4,0.1-0.7,0.5-1,0.7c-0.4,0.3-0.8,0.4-1.2,0.7
				C48.7,63.7,48.8,64,49,64L49,64z"/>
		</g>
		<g>
			<path class="st2" d="M49,61.7c0.4-0.6,0.9-1.2,1.1-1.8c0.1-0.2-0.2-0.4-0.4-0.3c-0.5,0.5-0.8,1.3-1.1,1.9
				C48.6,61.8,48.9,61.9,49,61.7L49,61.7z"/>
		</g>
		<g>
			<path class="st2" d="M48.2,61.3c0.3-0.4,0.5-0.9,0.7-1.4c0.1-0.2-0.2-0.4-0.3-0.2c-0.3,0.4-0.5,0.9-0.7,1.4
				C47.7,61.3,48,61.5,48.2,61.3L48.2,61.3z"/>
		</g>
		<g>
			<path class="st2" d="M28.1,72.3c-0.6,0.2-1.4,0.6-1.8,1.1c-0.1,0.2,0,0.4,0.2,0.3c0.6-0.1,1.4-0.6,1.9-1
				C28.6,72.5,28.4,72.2,28.1,72.3L28.1,72.3z"/>
		</g>
		<g>
			<path class="st2" d="M27.2,70c-0.7-0.1-1.8,0-2.4,0.5c-0.2,0.1-0.1,0.4,0.1,0.4c0.4,0,0.7-0.1,1.1-0.2c0.4-0.1,0.8-0.1,1.2-0.2
				C27.5,70.4,27.5,70,27.2,70L27.2,70z"/>
		</g>
		<g>
			<path class="st2" d="M26.1,67.8c-0.5,0-1.1,0.1-1.5,0.5c-0.1,0.1,0,0.3,0.1,0.3c0.5,0,0.9-0.2,1.4-0.3
				C26.5,68.2,26.4,67.8,26.1,67.8L26.1,67.8z"/>
		</g>
		<g>
			<path class="st2" d="M26,65.6c-0.6-0.1-1.5,0-2,0.4c-0.1,0.1-0.1,0.3,0.1,0.3c0.3,0.1,0.6,0,0.9-0.1c0.3-0.1,0.7-0.1,1-0.2
				C26.3,66.1,26.3,65.7,26,65.6L26,65.6z"/>
		</g>
		<g>
			<path class="st2" d="M26.3,63.3c-0.6,0-1.3,0-1.7,0.4c-0.1,0.1-0.1,0.3,0.1,0.4c0.6,0.2,1.2-0.1,1.8-0.3
				C26.6,63.7,26.5,63.3,26.3,63.3L26.3,63.3z"/>
		</g>
		<g>
			<path class="st2" d="M26.2,60.9c-0.4,0-0.8,0-1.2,0c-0.4,0-0.7,0-1.1,0.1c-0.2,0.1-0.2,0.3,0,0.4c0.7,0.3,1.6,0.1,2.3-0.1
				C26.5,61.3,26.5,61,26.2,60.9L26.2,60.9z"/>
		</g>
		<g>
			<path class="st2" d="M25.8,59.2c-0.5-0.4-1.4-0.8-2-0.7c-0.2,0-0.3,0.3-0.1,0.5c0.3,0.2,0.6,0.3,1,0.4c0.3,0.1,0.7,0.2,1,0.3
				C25.9,59.7,25.9,59.4,25.8,59.2L25.8,59.2z"/>
		</g>
		<g>
			<path class="st2" d="M26.1,57.1c-0.5-0.3-1.2-0.8-1.8-0.7c-0.2,0-0.2,0.2-0.1,0.3c0.3,0.5,1.2,0.7,1.7,0.9
				C26.1,57.7,26.4,57.2,26.1,57.1L26.1,57.1z"/>
		</g>
		<g>
			<path class="st2" d="M25.9,55.3c-0.3-0.3-0.5-0.7-0.7-1c-0.2-0.3-0.3-0.6-0.7-0.8c-0.1-0.1-0.3,0.1-0.3,0.2
				c0,0.7,0.9,1.5,1.3,1.9C25.8,55.8,26.1,55.6,25.9,55.3L25.9,55.3z"/>
		</g>
		<g>
			<path class="st2" d="M25.1,52.9c0.2,0.1,0.5,0.2,0.7,0.3c0.3,0.1,0.5,0.3,0.8,0.4c0.2,0,0.4-0.1,0.3-0.3
				c-0.3-0.5-1.1-0.8-1.7-0.7C25,52.6,24.9,52.8,25.1,52.9L25.1,52.9z"/>
		</g>
		<g>
			<path class="st2" d="M25.3,49.8c0.3,0.3,0.6,0.5,1,0.8c0.3,0.2,0.6,0.5,1,0.6c0.2,0,0.3-0.2,0.2-0.3c-0.2-0.3-0.6-0.5-0.9-0.7
				c-0.4-0.2-0.7-0.4-1.1-0.6C25.3,49.4,25.2,49.7,25.3,49.8L25.3,49.8z"/>
		</g>
		<g>
			<path class="st2" d="M26.4,48.3c0.3,0.5,0.8,1.1,1.4,1.4c0.2,0.1,0.3-0.1,0.2-0.3c-0.3-0.5-0.8-0.9-1.2-1.3
				C26.6,47.9,26.2,48.1,26.4,48.3L26.4,48.3z"/>
		</g>
		<g>
			<path class="st2" d="M27.9,46.4c0,0.5-0.1,1.3,0.3,1.7c0.1,0.1,0.3,0.1,0.3-0.1c0.1-0.5-0.2-1.1-0.2-1.6
				C28.4,46.1,27.9,46.1,27.9,46.4L27.9,46.4z"/>
		</g>
		<g>
			<path class="st2" d="M29.8,45.9c-0.2,0.5-0.4,1.4-0.1,1.9c0.1,0.1,0.2,0.1,0.3,0c0.3-0.5,0.2-1.4,0.2-1.9
				C30.2,45.7,29.9,45.7,29.8,45.9L29.8,45.9z"/>
		</g>
		<g>
			<path class="st2" d="M31.8,46.2c-0.4,0.4-0.7,1-0.5,1.5c0.1,0.1,0.3,0.2,0.3,0c0.2-0.4,0.2-1,0.4-1.4
				C32.1,46.2,32,46.1,31.8,46.2L31.8,46.2z"/>
		</g>
		<g>
			<path class="st2" d="M32.5,48.7c0.2-0.3,0.3-0.6,0.5-1c0.2-0.3,0.3-0.5,0.3-0.8c0-0.2-0.2-0.3-0.3-0.2c-0.6,0.2-0.9,1.3-0.9,1.8
				C32.2,48.8,32.4,48.9,32.5,48.7L32.5,48.7z"/>
		</g>
		<g>
			<path class="st2" d="M34.2,49.9c0.5-0.2,1.3-0.7,1.6-1.1c0.1-0.2,0-0.4-0.2-0.4c-0.6,0.2-1.2,0.8-1.6,1.3
				C33.8,49.8,34,50,34.2,49.9L34.2,49.9z"/>
		</g>
		<g>
			<path class="st2" d="M35.1,51.8c0.3-0.1,0.5-0.3,0.8-0.4c0.3-0.1,0.5-0.1,0.8-0.3c0.2-0.1,0.1-0.3-0.1-0.4
				c-0.6-0.2-1.5,0.3-1.7,0.8C34.8,51.6,34.9,51.8,35.1,51.8L35.1,51.8z"/>
		</g>
		<g>
			<path class="st2" d="M35.3,54.2c0.6-0.1,1.1-0.3,1.7-0.4c0.4-0.1,0.3-0.7-0.1-0.7c-0.6,0.1-1.2,0.3-1.7,0.7
				C34.9,53.9,35,54.2,35.3,54.2L35.3,54.2z"/>
		</g>
		<g>
			<path class="st2" d="M35.2,56.4c0.4-0.1,0.9-0.2,1.3-0.4c0.4-0.1,0.7-0.2,1-0.4c0.1-0.1,0.1-0.4-0.1-0.4c-0.4,0-0.7,0.2-1.1,0.3
				c-0.4,0.2-0.8,0.4-1.2,0.6C35,56.2,35,56.5,35.2,56.4L35.2,56.4z"/>
		</g>
		<g>
			<path class="st2" d="M35.3,58.4c0.4-0.1,0.8-0.2,1.1-0.4c0.2-0.1,0.2-0.5-0.1-0.5c-0.5,0-0.9,0.3-1.2,0.6
				C34.9,58.2,35.1,58.5,35.3,58.4L35.3,58.4z"/>
		</g>
		<g>
			<path class="st2" d="M36.7,58.6c0.1,0.4-0.6,1.6,0.3,1.6c0.1,0,0.2-0.1,0.2-0.2c0-0.3,0-0.5,0-0.8c0-0.3,0.1-0.5,0-0.7
				C37,58.2,36.6,58.4,36.7,58.6L36.7,58.6z"/>
		</g>
		<g>
			<path class="st2" d="M38.8,57.8c-0.2,0.6-0.4,1.3-0.3,1.9c0,0.2,0.3,0.3,0.4,0.1c0.3-0.5,0.3-1.3,0.4-1.8
				C39.3,57.6,38.9,57.5,38.8,57.8L38.8,57.8z"/>
		</g>
		<g>
			<path class="st2" d="M40.7,57.4c-0.3,0.6-0.6,1.5-0.4,2.1c0.1,0.1,0.3,0.2,0.4,0c0.2-0.3,0.2-0.6,0.2-0.9
				c0.1-0.4,0.1-0.8,0.2-1.2C41.1,57.2,40.8,57.2,40.7,57.4L40.7,57.4z"/>
		</g>
		<g>
			<path class="st2" d="M42.8,57.7c-0.3,0.5-0.8,1.6-0.4,2.1c0.1,0.1,0.2,0.1,0.2,0c0.2-0.2,0.1-0.5,0.2-0.8c0-0.4,0.1-0.8,0.3-1.2
				C43.2,57.7,42.9,57.5,42.8,57.7L42.8,57.7z"/>
		</g>
		<g>
			<path class="st2" d="M44.8,58.6c-0.1,0.6-0.4,1.2-0.3,1.7c0,0.2,0.3,0.3,0.4,0.1c0.3-0.5,0.3-1.2,0.4-1.7
				C45.3,58.4,44.9,58.3,44.8,58.6L44.8,58.6z"/>
		</g>
		<g>
			<path class="st2" d="M47.5,59c-0.3,0.5-0.8,1.2-0.7,1.8c0,0.2,0.2,0.3,0.3,0.2c0.5-0.4,0.6-1.2,0.8-1.8
				C47.9,58.8,47.6,58.7,47.5,59L47.5,59z"/>
		</g>
	</g>
	<g>
		<path class="st3" d="M66.6,53.4c-0.2,2.3-0.1,4.7-0.3,7c-0.2,2.3-0.6,4.7-0.8,7c0,0.6,0.7,0.8,1,0.2c1.9-4.2,2.4-9.8,1.5-14.3
			C67.8,52.7,66.6,52.6,66.6,53.4L66.6,53.4z"/>
	</g>
	<g>
		<path class="st3" d="M61.6,75.9c-0.4,0.6-0.8,1.2-1.1,1.8c-0.4,0.6-0.7,1.1-0.7,1.8c0,0.5,0.4,0.9,0.9,0.7
			c1.2-0.5,1.8-2.1,2.5-3.1C63.9,76,62.3,74.8,61.6,75.9L61.6,75.9z"/>
	</g>
</g>
</svg>
