<?xml version="1.0" encoding="utf-8"?>
<!-- Generator: Adobe Illustrator 22.0.1, SVG Export Plug-In . SVG Version: 6.00 Build 0)  -->
<svg version="1.1" id="Capa_1" xmlns="http://www.w3.org/2000/svg" xmlns:xlink="http://www.w3.org/1999/xlink" x="0px" y="0px"
	 viewBox="0 0 110.7 82.9" style="enable-background:new 0 0 110.7 82.9;" xml:space="preserve">
<style type="text/css">
	.st0{fill:#6A86B0;}
	.st1{fill:#56618C;}
	.st2{fill:#E892BF;}
	.st3{fill:#FFFFFF;}
</style>
<g>
	<g>
		<path class="st0" d="M108.4,31c4.1,11.5-7.9,21.5-18.5,21.4c-2.4,0-4.7-0.4-7-1c-4.5-1.1-8.9-2.9-13.5-3.8
			c-2.6-0.5-5.2-0.6-7.9-0.6c-4.7,0-9.3,0.2-13.7-1.3c-5.8-2.1-8.8-6.5-9.9-12.5c-0.6-3.4-0.7-6.9-1.3-10.3
			c-0.1-0.7-0.2-1.5-0.4-2.2c-0.3-1.2-0.6-2.4-1-3.7l0,0c-0.2-0.7-0.5-1.4-0.7-2.1c-0.8-2.3-1.6-4.6-2-7c-0.1-0.4,0.1-0.8,0.4-1l0,0
			c0.3-0.3,0.8-0.4,1.2,0c0.2,0.3,0.5,0.5,0.7,0.8c0,0,2.8-3,7.1-6.4c0.2-0.1,0.5-0.1,0.8-0.1c6.9-0.7,13.8-1,20.7-0.8
			c3.9,0.1,8.9-0.1,11.9,2.5c0.3,0.4,0.5,0.7,0.7,1.1c0,0,0,0,0,0c0.1,0.3,0.2,0.5,0.2,0.8c0,0,0,0,0,0c0.6,2,1.1,4.2,1.4,6.7
			c0.4,0.5,0.9,0.9,1.3,1.3c5.8,5,15,5.8,21.9,9.5C104,24.3,106.9,26.8,108.4,31z"/>
		<path class="st1" d="M76,4.8C76,4.8,76,4.9,76,4.8c0.6,4.2-9.5,6.1-12.9,6.6c-6.2,0.8-12.4,0.8-18.5,0.4
			c-3.5-0.3-9.5,0.1-11.5-3.1c-0.3-0.5-0.4-1-0.3-1.6l0,0c0.4-2,3.3-4.5,8.9-5.6c0.2-0.1,0.5-0.1,0.8-0.1c6.9-0.7,13.8-1,20.7-0.8
			c3.9,0.1,8.9-0.1,11.9,2.5c0.3,0.4,0.5,0.7,0.7,1.1c0,0,0,0,0,0C75.9,4.3,76,4.6,76,4.8z"/>
		<path class="st2" d="M61.2,41.7c0,0,0.8,2.5,0.2,5.4c-4.7,0-9.3,0.2-13.7-1.3c-5.8-2.1-8.8-6.5-9.9-12.5
			c-0.6-3.4-0.7-6.9-1.3-10.3c1-0.6,2.1-1.1,3.3-1.5C45,20,50.4,23.8,54,27.7C57.6,31.6,59.8,36.6,61.2,41.7z"/>
		<path class="st2" d="M108.4,31c4.1,11.5-7.9,21.5-18.5,21.4c-2.4,0-4.7-0.4-7-1c-0.8-4,0.4-13.8,2.5-18.4
			c2.1-4.6,5.6-8.9,10.4-10.4c0.8-0.2,2.6-0.4,4.8-0.3C104,24.3,106.9,26.8,108.4,31z"/>
		<g>
			<path class="st1" d="M78.8,12.9c-2,0.9-4,1.6-6.2,2.2l0,0c-0.4,0.1-0.8,0.2-1.2,0.3c-1.5,0.4-3,0.7-4.5,1
				c-0.5,0.1-0.9,0.2-1.4,0.2c-1.3,0.2-2.5,0.4-3.8,0.6l0,0c-0.3,0-0.5,0.1-0.8,0.1c-0.2,0-0.4,0.1-0.6,0.1
				c-4.1,0.5-8.5,1.1-12.8,1.2l0,0c-0.2,0-0.3,0-0.5,0c0,0,0,0,0,0c-3.1,0.1-6.1-0.1-9-0.8c0,0,0,0,0,0c-0.3-0.1-0.6-0.1-0.9-0.2
				c-0.6-0.2-1.3-0.3-1.9-0.6l0,0c-0.2-0.7-0.5-1.4-0.7-2.1c0.5,0.1,1,0.2,1.5,0.3c0.8,0.2,1.6,0.3,2.4,0.4c0.6,0.1,1.2,0.2,1.8,0.3
				c0.8,0.1,1.6,0.2,2.4,0.3c1.1,0.1,2.2,0.2,3.3,0.3c0.7,0,1.3,0.1,2,0.1c0.8,0,1.7,0.1,2.5,0.1c0.6,0,1.2,0,1.8,0
				c0.9,0,1.8,0,2.8-0.1c0.7,0,1.3-0.1,1.9-0.1c1-0.1,2-0.2,3-0.3c0.7-0.1,1.4-0.2,2.2-0.3c0.9-0.1,1.8-0.3,2.7-0.5
				c0.7-0.1,1.4-0.3,2.1-0.5c1.2-0.3,2.4-0.6,3.6-0.9c0.7-0.2,1.4-0.4,2.1-0.6c1.7-0.5,3.3-1.1,5-1.8C77.9,12,78.3,12.5,78.8,12.9z"
				/>
		</g>
		<g>
			<path class="st1" d="M38.7,16.6c-0.4-1-0.6-2-0.8-3c-0.2-1-0.1-2.1-0.5-3c-0.3-0.6-1.1-0.8-1.5-0.1c-1.1,2.1,0,5,1.1,6.9
				C37.4,18.4,39.1,17.7,38.7,16.6L38.7,16.6z"/>
		</g>
		<g>
			<path class="st1" d="M42.5,16.8c0.2-2.2-0.3-4.8-1-6.8c-0.2-0.6-1-0.5-1.2,0c-0.8,2.1-0.8,5,0.2,7.1C41,18.2,42.4,18,42.5,16.8
				L42.5,16.8z"/>
		</g>
		<g>
			<path class="st1" d="M48.1,17.6c-0.6-2.2-1-4.5-2.1-6.4c-0.2-0.3-0.6-0.2-0.6,0.1c-0.6,2.3,0.2,4.7,1.1,6.9
				C46.8,19.1,48.4,18.7,48.1,17.6L48.1,17.6z"/>
		</g>
		<g>
			<path class="st1" d="M52.3,17.6c-0.2-1.2-0.3-2.4-0.4-3.7c-0.1-1,0-2.2-0.6-3.2c-0.2-0.4-0.9-0.5-1.2-0.1
				c-1.4,1.9-0.2,5.2,0.6,7.2C51.1,18.6,52.5,18.5,52.3,17.6L52.3,17.6z"/>
		</g>
		<g>
			<path class="st1" d="M56.9,16.8c-0.1-2.1-0.5-4.6-1.4-6.5c-0.2-0.5-1-0.6-1.2,0c-0.7,2.2-0.2,4.9,1,6.9
				C55.7,18.1,56.9,17.6,56.9,16.8L56.9,16.8z"/>
		</g>
		<g>
			<path class="st1" d="M61.8,16.4c0.1,0,0-0.1,0-0.1C61.7,16.3,61.7,16.4,61.8,16.4L61.8,16.4z"/>
		</g>
		<g>
			<path class="st1" d="M62,16.5c0.1-1.1-0.3-2.1-0.5-3.1c-0.2-1.1-0.5-2.1-0.9-3.2c-0.3-1-1.7-0.7-1.7,0.3c-0.1,2,0.2,4.9,1.5,6.5
				C61,17.7,62,17.4,62,16.5L62,16.5z"/>
		</g>
		<g>
			<path class="st1" d="M66.9,16.2c0-2.1-0.8-4.7-2.1-6.3c-0.4-0.5-1.2-0.3-1.2,0.4c-0.1,2.1,0.7,4.7,1.9,6.3
				C66,17.3,66.9,17,66.9,16.2L66.9,16.2z"/>
		</g>
		<g>
			<path class="st1" d="M72.7,14.3c-0.5-1.8-0.8-4.1-2-5.6c-0.4-0.5-1.2-0.4-1.4,0.2c-0.5,2.1,0.6,4.5,1.8,6.1
				C71.7,16,73,15.3,72.7,14.3L72.7,14.3z"/>
		</g>
		<g>
			<path class="st1" d="M39.2,23.3c-0.2-0.7-0.3-1.6-0.6-2.3c-0.1-0.3-0.6-0.3-0.6,0c-0.1,0.8,0.3,1.8,0.6,2.5
				C38.8,23.9,39.3,23.7,39.2,23.3L39.2,23.3z"/>
		</g>
		<g>
			<path class="st1" d="M42.1,22.1c-0.1-0.4-0.2-0.9-0.1-1.4c0-0.3,0.1-0.6,0.1-0.9c0-0.1-0.2-0.2-0.3-0.1c-0.8,0.5-0.5,1.9-0.3,2.6
				C41.6,22.7,42.2,22.5,42.1,22.1L42.1,22.1z"/>
		</g>
		<g>
			<path class="st1" d="M46.4,24.6c0.3-0.6,0.5-1.3,0.8-1.9c0.2-0.5,0.6-1,0.4-1.5c0-0.1-0.2-0.2-0.3-0.2c-0.5,0.2-0.6,0.8-0.8,1.3
				c-0.2,0.7-0.5,1.3-0.7,2C45.6,24.7,46.2,25,46.4,24.6L46.4,24.6z"/>
		</g>
		<g>
			<path class="st1" d="M49.5,25.8c0.5-0.4,1-0.9,1.4-1.3c0.4-0.4,1-0.8,1.1-1.4c0-0.2-0.1-0.4-0.3-0.4c-0.6,0.1-1.1,0.6-1.5,1
				c-0.5,0.5-1,1-1.3,1.6C48.9,25.6,49.2,26,49.5,25.8L49.5,25.8z"/>
		</g>
		<g>
			<path class="st1" d="M52.9,28.7c0.7-0.4,1.8-0.7,2.1-1.4c0.1-0.3-0.1-0.5-0.3-0.5c-0.4,0-0.7,0.2-1.1,0.4
				c-0.4,0.2-0.8,0.5-1.2,0.7C51.8,28.1,52.4,29,52.9,28.7L52.9,28.7z"/>
		</g>
		<g>
			<path class="st1" d="M55.4,32.5c1.2-0.6,2.3-0.4,3.6-0.5c0.2,0,0.3-0.2,0.1-0.4c-1.2-1.1-3-0.6-4.1,0.3
				C54.6,32.1,55,32.7,55.4,32.5L55.4,32.5z"/>
		</g>
		<g>
			<path class="st1" d="M57.9,36.3c1-0.3,1.9,0,2.9-0.3c0.2,0,0.2-0.3,0.1-0.5c-0.8-0.8-2.3-0.5-3.2,0
				C57.3,35.7,57.4,36.4,57.9,36.3L57.9,36.3z"/>
		</g>
		<g>
			<path class="st1" d="M59.2,40.1c0.6,0,1.2,0,1.8,0.1c0.5,0.1,1,0.4,1.4,0.2c0.2-0.1,0.3-0.2,0.2-0.4c-0.5-1.1-2.6-0.8-3.5-0.5
				C58.7,39.5,58.8,40.1,59.2,40.1L59.2,40.1z"/>
		</g>
		<g>
			<path class="st1" d="M60.4,44.3c0.9,0.3,2.1,0.9,3,0.6c0.2-0.1,0.3-0.4,0.1-0.5c-0.8-0.6-2.1-0.6-3-0.7
				C60.2,43.6,60.1,44.2,60.4,44.3L60.4,44.3z"/>
		</g>
		<g>
			<path class="st1" d="M84.5,48.9c-0.5-0.4-1.1-0.7-1.7-1c-0.6-0.3-1.2-0.6-1.8-0.7c-0.3,0-0.5,0.3-0.3,0.5c0.5,0.5,1.1,0.7,1.7,1
				c0.6,0.3,1.2,0.6,1.8,0.7C84.5,49.4,84.7,49.1,84.5,48.9L84.5,48.9z"/>
		</g>
		<g>
			<path class="st1" d="M83.6,45.8c-0.3-0.4-0.7-0.7-1-1c-0.4-0.3-0.7-0.7-1.2-0.9c-0.4-0.1-0.7,0.2-0.5,0.6
				c0.2,0.5,0.7,0.8,1.1,1.1c0.4,0.3,0.8,0.6,1.2,0.7C83.5,46.5,83.8,46,83.6,45.8L83.6,45.8z"/>
		</g>
		<g>
			<path class="st1" d="M84.2,41.9c-0.6-0.8-1.5-1.9-2.5-2.1c-0.4-0.1-0.6,0.3-0.4,0.6c0.3,0.4,0.7,0.7,1.1,1c0.4,0.3,0.8,0.7,1.2,1
				C83.9,42.8,84.5,42.3,84.2,41.9L84.2,41.9z"/>
		</g>
		<g>
			<path class="st1" d="M85,38.3c-0.4-0.5-0.9-1-1.3-1.5c-0.4-0.5-0.8-1.1-1.4-1.5c-0.3-0.1-0.7,0.1-0.5,0.4
				c0.2,0.6,0.8,0.9,1.2,1.4c0.5,0.5,1,1.1,1.5,1.6C84.7,39,85.2,38.6,85,38.3L85,38.3z"/>
		</g>
		<g>
			<path class="st1" d="M86.5,33.8c-0.2-0.8-0.6-1.5-1.1-2.2c-0.4-0.5-0.9-1.2-1.6-1.4c-0.2-0.1-0.5,0.2-0.4,0.4
				c0.3,0.6,0.9,1,1.3,1.6c0.4,0.6,0.8,1.2,1.1,1.9C86,34.5,86.6,34.2,86.5,33.8L86.5,33.8z"/>
		</g>
		<g>
			<path class="st1" d="M88.6,29.4c-0.3-0.5-0.6-1-0.8-1.4c-0.2-0.4-0.4-0.8-0.8-1.1c-0.2-0.1-0.5,0.1-0.5,0.3
				c0,0.5,0.3,0.9,0.6,1.3c0.3,0.5,0.6,1,0.9,1.4C88.1,30.5,88.9,30,88.6,29.4L88.6,29.4z"/>
		</g>
		<g>
			<path class="st1" d="M92.2,26.5c-0.3-0.8-0.7-2.3-1.6-2.5c-0.2-0.1-0.4,0.1-0.4,0.3c0,0.4,0.3,0.7,0.5,1.1
				c0.3,0.4,0.5,0.9,0.7,1.4C91.6,27.3,92.4,27,92.2,26.5L92.2,26.5z"/>
		</g>
		<g>
			<path class="st1" d="M96.3,24.7c-0.4-1.1-1.6-3.2-3.1-2.9c-0.1,0-0.3,0.2-0.3,0.3c0,0,0,0.1,0,0.1c0,0.2,0.1,0.3,0.2,0.4
				c0.3,0.1,0.5,0.1,0.8,0.2c0.2,0.2,0.5,0.4,0.7,0.6c0.4,0.5,0.8,1,1.1,1.6C95.9,25.3,96.4,25,96.3,24.7L96.3,24.7z"/>
		</g>
		<g>
			<path class="st1" d="M96.1,22.2c0.7,0.4,1.3,1,2.1,1.2c0.3,0.1,0.4-0.3,0.2-0.5c-0.6-0.5-1.4-0.9-2.1-1.2
				C96,21.5,95.8,22,96.1,22.2L96.1,22.2z"/>
		</g>
	</g>
	<g>
		<path class="st0" d="M71.3,67.1c0.4,12.2-14,18.1-24.1,14.8c-2.3-0.7-4.3-1.8-6.3-3c-4-2.4-7.6-5.4-11.7-7.7
			c-2.3-1.3-4.8-2.2-7.4-3c-4.4-1.4-9-2.6-12.7-5.4C4.2,59.1,2.7,54,3.5,48c0.4-3.4,1.4-6.8,1.9-10.2c0.1-0.7,0.2-1.5,0.3-2.2
			c0.1-1.3,0.1-2.5,0.1-3.8v0c0-0.7,0-1.4,0-2.2c0-2.4-0.1-4.8,0.2-7.2c0-0.4,0.3-0.7,0.7-0.9h0c0.4-0.2,0.9-0.1,1.1,0.4
			c0.1,0.3,0.3,0.6,0.4,1c0,0,3.6-2,8.7-4c0.2,0,0.5,0.1,0.8,0.1c6.8,1.4,13.4,3.2,20,5.4c3.7,1.3,8.5,2.6,10.6,5.9
			c0.2,0.4,0.3,0.9,0.3,1.2c0,0,0,0,0,0c0,0.3,0,0.5,0,0.8c0,0,0,0,0,0c0,2-0.2,4.3-0.6,6.8c0.2,0.6,0.5,1.1,0.9,1.7
			c4,6.5,12.6,10.1,18,15.7C69.3,59.3,71.2,62.6,71.3,67.1z"/>
		<path class="st1" d="M48.4,32.4C48.4,32.4,48.4,32.4,48.4,32.4c-0.7,4.2-10.9,3-14.3,2.4c-6.1-1.1-12-2.9-17.7-5.2
			c-3.2-1.3-9.1-2.8-10-6.5c-0.1-0.5,0-1.1,0.2-1.6h0c1-1.8,4.5-3.3,10.2-2.6c0.2,0,0.5,0.1,0.8,0.1c6.8,1.4,13.4,3.2,20,5.4
			c3.7,1.3,8.5,2.6,10.6,5.9c0.2,0.4,0.3,0.9,0.3,1.2c0,0,0,0,0,0C48.4,31.9,48.4,32.1,48.4,32.4z"/>
		<path class="st2" d="M23.2,63.1c0,0,0,2.6-1.4,5.2c-4.4-1.4-9-2.6-12.7-5.4C4.2,59.1,2.7,54,3.5,48c0.4-3.4,1.4-6.8,1.9-10.2
			c1.1-0.3,2.3-0.4,3.6-0.4c5.3,0.1,9.3,5.4,11.5,10.2C22.8,52.4,23.4,57.8,23.2,63.1z"/>
		<path class="st2" d="M71.3,67.1c0.4,12.2-14,18.1-24.1,14.8c-2.3-0.7-4.3-1.8-6.3-3c0.4-4,4.6-13,7.9-16.8s8.1-6.8,13.1-6.7
			c0.9,0,2.6,0.4,4.7,1.2C69.3,59.3,71.2,62.6,71.3,67.1z"/>
		<g>
			<path class="st1" d="M48.6,40.9c-2.1,0.2-4.3,0.3-6.5,0.2h0c-0.4,0-0.8,0-1.2-0.1c-1.5-0.1-3.1-0.2-4.6-0.4
				c-0.5,0-0.9-0.1-1.4-0.2c-1.3-0.2-2.6-0.4-3.8-0.6h0c-0.3,0-0.5-0.1-0.8-0.1c-0.2,0-0.4-0.1-0.6-0.1c-4.1-0.8-8.4-1.5-12.6-2.7h0
				c-0.2,0-0.3-0.1-0.5-0.1c0,0,0,0,0,0c-2.9-0.9-5.8-2-8.4-3.5c0,0,0,0,0,0c-0.3-0.2-0.5-0.3-0.8-0.5c-0.6-0.3-1.1-0.7-1.6-1.1v0
				c0-0.7,0-1.4,0-2.2c0.4,0.2,0.9,0.5,1.3,0.7c0.7,0.4,1.4,0.8,2.2,1.1c0.5,0.3,1.1,0.5,1.7,0.8c0.7,0.3,1.4,0.7,2.2,1
				c1,0.4,2,0.8,3,1.2c0.6,0.2,1.2,0.5,1.9,0.7c0.8,0.3,1.6,0.6,2.4,0.8c0.6,0.2,1.2,0.4,1.8,0.5c0.9,0.3,1.8,0.5,2.7,0.7
				c0.6,0.2,1.3,0.3,1.9,0.5c1,0.2,2,0.4,2.9,0.6c0.7,0.1,1.4,0.2,2.2,0.4c0.9,0.1,1.8,0.3,2.7,0.4c0.7,0.1,1.4,0.1,2.1,0.2
				c1.2,0.1,2.5,0.2,3.7,0.2c0.7,0,1.4,0,2.2,0c1.8,0,3.5-0.1,5.3-0.2C48,39.8,48.3,40.4,48.6,40.9z"/>
		</g>
		<g>
			<path class="st1" d="M9.2,32.4c-0.1-1,0-2.1,0.1-3.1c0.1-1,0.5-2,0.4-3c-0.1-0.7-0.8-1.1-1.3-0.6c-1.7,1.7-1.5,4.8-1.1,6.9
				C7.5,33.7,9.3,33.5,9.2,32.4L9.2,32.4z"/>
		</g>
		<g>
			<path class="st1" d="M12.9,33.7c0.8-2,1.2-4.7,1.1-6.8c0-0.6-0.8-0.8-1.1-0.3c-1.4,1.8-2.2,4.6-2,6.9
				C11,34.6,12.4,34.8,12.9,33.7L12.9,33.7z"/>
		</g>
		<g>
			<path class="st1" d="M17.9,36.1c0.1-2.3,0.4-4.6-0.1-6.8c-0.1-0.3-0.5-0.3-0.6-0.1c-1.2,2.1-1.2,4.5-1,6.9
				C16.2,37.2,17.9,37.2,17.9,36.1L17.9,36.1z"/>
		</g>
		<g>
			<path class="st1" d="M21.9,37.4c0.2-1.2,0.5-2.4,0.7-3.6c0.2-1,0.7-2.1,0.4-3.2c-0.1-0.4-0.7-0.7-1.1-0.5c-1.9,1.4-1.8,4.9-1.5,7
				C20.5,38,21.8,38.3,21.9,37.4L21.9,37.4z"/>
		</g>
		<g>
			<path class="st1" d="M26.6,38c0.6-2,0.9-4.5,0.6-6.6c-0.1-0.6-0.8-0.8-1.1-0.3c-1.3,1.9-1.7,4.7-1.2,6.9
				C25.1,38.9,26.3,38.8,26.6,38L26.6,38z"/>
		</g>
		<g>
			<path class="st1" d="M31.4,39.1c0.1,0,0.1-0.1,0-0.1C31.3,39,31.3,39.1,31.4,39.1L31.4,39.1z"/>
		</g>
		<g>
			<path class="st1" d="M31.6,39.3c0.4-1,0.4-2.1,0.4-3.1c0.1-1.1,0.2-2.2,0.1-3.3c0-1.1-1.4-1.1-1.7-0.2c-0.7,1.9-1.3,4.7-0.5,6.7
				C30.2,40.1,31.2,40.1,31.6,39.3L31.6,39.3z"/>
		</g>
		<g>
			<path class="st1" d="M36.3,40.5c0.7-2,0.7-4.7-0.1-6.6c-0.2-0.6-1-0.6-1.3,0c-0.8,1.9-0.7,4.6-0.1,6.6
				C35.1,41.2,36,41.2,36.3,40.5L36.3,40.5z"/>
		</g>
		<g>
			<path class="st1" d="M42.4,40.5c0.1-1.9,0.4-4.2-0.2-6c-0.2-0.6-1.1-0.8-1.4-0.2c-1.1,1.8-0.8,4.4-0.2,6.4
				C40.9,41.7,42.3,41.5,42.4,40.5L42.4,40.5z"/>
		</g>
		<g>
			<path class="st1" d="M7.7,38.9c0-0.8,0.2-1.6,0.1-2.3c0-0.3-0.4-0.5-0.6-0.2c-0.4,0.8-0.3,1.8-0.2,2.6
				C7.1,39.4,7.7,39.3,7.7,38.9L7.7,38.9z"/>
		</g>
		<g>
			<path class="st1" d="M10.9,38.6c0-0.5,0.1-0.9,0.3-1.3c0.1-0.3,0.3-0.5,0.3-0.8c0-0.1-0.2-0.3-0.3-0.2c-0.9,0.2-1.1,1.6-1.1,2.4
				C10.2,39,10.9,39.1,10.9,38.6L10.9,38.6z"/>
		</g>
		<g>
			<path class="st1" d="M14.2,42.3c0.4-0.5,0.9-1,1.4-1.6c0.3-0.4,0.9-0.8,0.8-1.3c0-0.1-0.1-0.3-0.3-0.3c-0.6,0.1-0.8,0.6-1.1,1
				c-0.4,0.6-0.8,1.1-1.3,1.7C13.4,42.1,13.9,42.6,14.2,42.3L14.2,42.3z"/>
		</g>
		<g>
			<path class="st1" d="M16.8,44.4c0.6-0.2,1.2-0.6,1.8-0.8c0.5-0.3,1.2-0.5,1.5-1c0.1-0.2,0-0.4-0.2-0.4c-0.6-0.1-1.2,0.2-1.7,0.5
				c-0.6,0.3-1.2,0.7-1.7,1.2C16.3,44,16.5,44.5,16.8,44.4L16.8,44.4z"/>
		</g>
		<g>
			<path class="st1" d="M19.2,48.1c0.7-0.1,1.9-0.2,2.4-0.7c0.2-0.2,0.1-0.5-0.2-0.6c-0.4-0.2-0.8,0-1.2,0.1
				c-0.5,0.1-0.9,0.2-1.4,0.3C18.3,47.3,18.6,48.3,19.2,48.1L19.2,48.1z"/>
		</g>
		<g>
			<path class="st1" d="M20.4,52.6c1.3-0.2,2.3,0.4,3.6,0.6c0.2,0,0.4-0.1,0.3-0.3c-0.8-1.4-2.7-1.4-4-1
				C19.7,52,19.9,52.6,20.4,52.6L20.4,52.6z"/>
		</g>
		<g>
			<path class="st1" d="M21.7,56.9c1,0,1.8,0.5,2.8,0.6c0.2,0,0.3-0.2,0.2-0.4c-0.6-1-2-1.1-3.1-1C21.2,56.2,21.2,56.9,21.7,56.9
				L21.7,56.9z"/>
		</g>
		<g>
			<path class="st1" d="M21.8,61c0.6,0.1,1.1,0.3,1.6,0.6c0.4,0.2,0.8,0.7,1.3,0.6c0.2,0,0.3-0.1,0.3-0.3c-0.1-1.2-2.2-1.6-3.2-1.6
				C21.5,60.3,21.4,60.9,21.8,61L21.8,61z"/>
		</g>
		<g>
			<path class="st1" d="M21.6,65.3c0.8,0.6,1.7,1.4,2.7,1.5c0.2,0,0.4-0.3,0.3-0.5c-0.6-0.8-1.8-1.2-2.7-1.6
				C21.6,64.6,21.4,65.1,21.6,65.3L21.6,65.3z"/>
		</g>
		<g>
			<path class="st1" d="M43.2,76.9c-0.3-0.6-0.9-1-1.3-1.4c-0.5-0.5-0.9-1-1.5-1.2c-0.3-0.1-0.6,0.1-0.4,0.4c0.3,0.6,0.8,1,1.3,1.4
				c0.5,0.4,1,1,1.5,1.2C43.1,77.5,43.4,77.2,43.2,76.9L43.2,76.9z"/>
		</g>
		<g>
			<path class="st1" d="M43.3,73.7c-0.1-0.5-0.4-0.9-0.7-1.3c-0.3-0.4-0.5-0.9-0.9-1.2c-0.3-0.3-0.7,0-0.7,0.4
				c0.1,0.5,0.4,1,0.7,1.4c0.3,0.4,0.5,0.8,1,1.1C43,74.4,43.4,74,43.3,73.7L43.3,73.7z"/>
		</g>
		<g>
			<path class="st1" d="M45,70.2c-0.4-0.9-0.8-2.2-1.7-2.8c-0.3-0.2-0.7,0.1-0.6,0.5c0.1,0.5,0.4,0.9,0.7,1.3
				c0.3,0.4,0.6,0.9,0.8,1.4C44.4,71,45.2,70.7,45,70.2L45,70.2z"/>
		</g>
		<g>
			<path class="st1" d="M46.9,67c-0.3-0.6-0.5-1.2-0.8-1.8c-0.3-0.6-0.4-1.3-0.9-1.8c-0.2-0.2-0.7-0.1-0.6,0.3
				c0.1,0.6,0.4,1.1,0.7,1.7c0.3,0.6,0.6,1.3,1,2C46.4,67.6,47,67.4,46.9,67L46.9,67z"/>
		</g>
		<g>
			<path class="st1" d="M49.7,63.2c0-0.8-0.1-1.6-0.4-2.4c-0.2-0.6-0.5-1.4-1.1-1.8c-0.2-0.1-0.5,0-0.5,0.3c0.1,0.7,0.5,1.2,0.7,1.9
				c0.2,0.7,0.4,1.4,0.5,2.1C49,63.7,49.6,63.6,49.7,63.2L49.7,63.2z"/>
		</g>
		<g>
			<path class="st1" d="M53,59.6c-0.1-0.5-0.2-1.1-0.4-1.6c-0.1-0.5-0.1-0.9-0.5-1.3c-0.2-0.2-0.5-0.1-0.6,0.2
				c-0.1,0.5,0,0.9,0.2,1.4c0.1,0.5,0.3,1.1,0.4,1.6C52.2,60.5,53.1,60.2,53,59.6L53,59.6z"/>
		</g>
		<g>
			<path class="st1" d="M57.3,57.9c0-0.8,0-2.4-0.8-2.9c-0.2-0.1-0.4,0-0.5,0.2c-0.1,0.4,0,0.8,0.2,1.2c0.1,0.5,0.2,1,0.2,1.5
				C56.5,58.4,57.3,58.5,57.3,57.9L57.3,57.9z"/>
		</g>
		<g>
			<path class="st1" d="M61.7,57.4c-0.1-1.2-0.6-3.6-2-3.7c-0.1,0-0.3,0.1-0.4,0.2c0,0,0,0.1-0.1,0.1c-0.1,0.1,0,0.3,0.1,0.4
				c0.2,0.2,0.5,0.2,0.7,0.5c0.2,0.2,0.3,0.5,0.4,0.8c0.3,0.6,0.4,1.2,0.6,1.8C61.2,57.9,61.8,57.8,61.7,57.4L61.7,57.4z"/>
		</g>
		<g>
			<path class="st1" d="M62.3,55c0.5,0.6,1,1.3,1.6,1.7c0.2,0.2,0.5-0.1,0.4-0.4c-0.4-0.7-1.1-1.2-1.6-1.8
				C62.4,54.3,62.1,54.7,62.3,55L62.3,55z"/>
		</g>
	</g>
	<g>
		<path class="st3" d="M62.1,62.5c1,1.3,1.8,2.8,2.3,4.3c0.5,1.5,0.7,3,1.3,4.4c0.3,0.6,1.3,0.8,1.5,0c0.9-3.4-1.1-7.2-3.1-9.9
			C63.3,60.1,61.2,61.3,62.1,62.5L62.1,62.5z"/>
	</g>
	<g>
		<path class="st3" d="M100,28.8c2,1.2,2.6,3.1,3.5,5.1c0.2,0.6,1.1,0.7,1.3,0c0.7-2.8-1.4-5.6-3.7-7C99.9,26.2,98.8,28.1,100,28.8
			L100,28.8z"/>
	</g>
	<g>
		<path class="st3" d="M7.3,50.4c-1.7,3.3,0.5,8.1,3.5,9.8c0.4,0.3,1.1-0.3,0.8-0.8c-1-1.3-1.9-2.7-2.4-4.3c-0.5-1.5-0.4-3-0.6-4.6
			C8.3,50,7.5,49.9,7.3,50.4L7.3,50.4z"/>
	</g>
</g>
</svg>
