<?xml version="1.0" encoding="utf-8"?>
<!-- Generator: Adobe Illustrator 22.0.1, SVG Export Plug-In . SVG Version: 6.00 Build 0)  -->
<svg version="1.1" id="Capa_1" xmlns="http://www.w3.org/2000/svg" xmlns:xlink="http://www.w3.org/1999/xlink" x="0px" y="0px"
	 viewBox="0 0 81.5 97.8" style="enable-background:new 0 0 81.5 97.8;" xml:space="preserve">
<style type="text/css">
	.st0{fill:#F0B3D0;}
	.st1{fill:#F8D28B;}
	.st2{fill:#E892BF;}
	.st3{fill:#FFFFFF;}
</style>
<g>
	<g>
		<path class="st0" d="M25.9,45.8C18.8,47.9,12.3,52,7.3,57.4c-1.8,2-3.4,4.2-3.7,6.9c-0.6,5.4,5,9.9,10.4,9.9
			c5.4,0,10.3-3.2,14.4-6.7c4.1-3.6,7.8-7.7,12.5-10.2c8.6-4.6,19.1-3.3,28.6-5.5c2.4-0.6,4.8-1.4,6.7-3c1.9-1.6,3.2-4,2.9-6.4
			c-0.2-2-1.5-3.8-3.1-5c-4.4-3.6-10.7-3.8-16.4-3.3c-16,1.5-31.6,7.6-44.5,17.3"/>
		<g>
			<path class="st0" d="M25.5,44.6C16.8,46.8-2.6,57,2.5,68.8c2,4.7,7.3,7.4,12.2,7.2c6.9-0.3,12.4-5,17.3-9.4
				c2.9-2.6,5.7-5.4,9.1-7.3c4.8-2.7,10.2-3.4,15.6-4c6.6-0.7,15-0.6,20.4-4.9c4.2-3.4,5-8.9,1.3-13c-3.8-4.2-9.8-5.3-15.2-5.2
				c-8.7,0.1-17.7,2.2-25.9,5.1c-7.9,2.9-17.5,6.9-23.2,13.2c-1.1,1.2,0.3,2.7,1.7,2.1c6.9-3.2,12.9-7.9,20-10.7
				c7.1-2.8,14.5-4.8,22-5.7c6-0.7,18.6-1.5,18.6,7c0,3.7-1.9,5.1-5.4,6.3c-1.8,0.6-3.6,0.9-5.5,1.2c-3.9,0.6-7.8,0.8-11.7,1.3
				c-5.9,0.7-11.8,2-16.7,5.5c-5.4,3.7-9.4,9.1-15.1,12.4c-3.8,2.2-8.4,3.6-12.5,1.4c-4.9-2.6-5.1-7.5-1.9-11.6
				c4.7-6,11.6-9.9,18.6-12.6C27.7,46.5,27.1,44.2,25.5,44.6L25.5,44.6z"/>
		</g>
	</g>
	<g>
		<path class="st1" d="M26.4,54.5c2-3.6,1-8.3-1.3-11.7c-2.3-3.4-5.7-6-8.8-8.7c-3.1-2.7-6.1-5.8-7.3-9.8c-1.2-4.2-0.2-8.8,2.2-12.4
			c2.5-3.6,6.2-6.1,10.3-7.6c4.4-1.6,9.4-1.9,13.6,0.2c6.6,3.3,9.2,11.7,8.6,19c-0.2,2.5-0.8,5.1-0.8,7.6c-0.1,5.6,2.3,11.2,6.5,15
			c-7.8,1.7-15.3,4.9-22,9.3"/>
		<g>
			<path class="st1" d="M27.3,55c4.2-7.1-0.8-14.4-6.2-19.2c-4.2-3.8-9.4-7.3-10.6-13.1c-1.3-6.6,3.3-12.5,8.9-15.4
				c5.4-2.8,12.9-3.6,17.6,1c3.9,3.7,5,9.5,4.7,14.7c-0.3,4.6-1.4,8.8-0.4,13.4c1,4.4,3.3,8.2,6.5,11.3c0.3-1.1,0.5-2.2,0.8-3.3
				c-8,1.9-15.5,5.1-22.5,9.5c-2.1,1.4-0.1,4.7,2.1,3.4c6.7-4.3,13.8-7.3,21.5-9.1c1.5-0.3,1.8-2.3,0.8-3.3
				c-5.8-5.7-6.2-11.9-5.3-19.5c0.5-4.7,0.2-9.3-1.6-13.7C39.6,2,29.5-0.7,20.3,2.9c-8.6,3.4-16,12.2-13.1,21.9
				c3.3,11,22.6,16.3,18.3,29.4C25.1,55.4,26.7,55.9,27.3,55L27.3,55z"/>
		</g>
	</g>
	<g>
		<path class="st0" d="M25,66.1c-4.5,7.1-1.7,16.9,3.3,22.9c5.8,7,15,9.7,23.8,7.7c8.8-2,17.1-8.9,18.8-18.1
			c1-5.1-0.4-10.4-1.9-15.2c-1.4-4.4-3.1-8.6-7.4-10.8c-2.4-1.2-4.4,2.4-2,3.6c3.9,2,5,6.9,6.2,10.8c1.4,4.7,2.1,9.6,0,14.3
			c-3,6.6-9.9,11.1-17,11.9c-7.1,0.9-14-1.9-18.3-7.7c-4.2-5.8-4.5-12.2-3.9-19C26.7,65.6,25.4,65.5,25,66.1L25,66.1z"/>
	</g>
	<g>
		<path class="st2" d="M3.7,70.8c2.3,4.6,8,6.4,12.9,5.6c7.2-1.2,13.1-7.1,18.7-11.4c7.6-5.8,15.5-9,24.9-10
			c6.8-0.7,12.9-2,17.3-7.6c0.2-0.3-0.2-0.7-0.5-0.4c-5.3,5.4-13.3,5.1-20.3,5.4c-6.1,0.2-11.6,1.3-17,4.4
			c-9.9,5.5-22.6,25.7-34.6,12.9C4.4,68.9,3.3,70,3.7,70.8L3.7,70.8z"/>
	</g>
	<g>
		<path class="st2" d="M52,37.9c4.2-1.4,9.3-0.6,13.7-0.8c0.3,0,0.4-0.5,0.1-0.5c-4-0.6-11-2.7-14.2,0.7
			C51.3,37.6,51.6,38.1,52,37.9L52,37.9z"/>
	</g>
	<g>
		<path class="st3" d="M8.4,63.4c1-1.6,2.1-3.2,3.3-4.6c1.1-1.2,2.5-2.3,3.5-3.6c0.4-0.6-0.3-1.5-1-1.3c-3.3,1.2-5.9,5.5-7.3,8.6
			C6.4,63.6,7.8,64.4,8.4,63.4L8.4,63.4z"/>
	</g>
	<g>
		<path class="st3" d="M21.1,10c1.1-0.6,2.2-1.2,3.5-1.6c1.2-0.3,2.4-0.2,3.5-0.6c0.7-0.2,0.9-1.3,0.2-1.6c-2.6-1.3-6.5,0.4-8.3,2.4
			C19.4,9.3,20.2,10.5,21.1,10L21.1,10z"/>
	</g>
	<g>
		<path class="st3" d="M31.3,9.4c2,1.6,4.1,2.8,5.5,4.9c1.5,2.2,1.7,4.6,2.4,7c0.3,1,1.7,0.9,1.9,0c1.6-5.4-3.8-12.9-9.3-13.5
			C31.2,7.7,30.8,8.9,31.3,9.4L31.3,9.4z"/>
	</g>
	<g>
		<path class="st2" d="M25.7,70c-1.5,11.9,10.3,27.3,23.2,24.5c0.9-0.2,0.7-1.6-0.2-1.6c-6.2,0-11-1.8-14.9-6.9
			c-3.8-5-4.1-10.4-6.2-16.1C27.2,69.2,25.8,69,25.7,70L25.7,70z"/>
	</g>
	<g>
		<path class="st2" d="M61.3,93.2c5.2-4,11.4-11.6,12-18.4c0.6-7-2.8-16.3-7.4-21.4c-1.1-1.2-3.1,0.5-2.2,1.8
			c3.6,4.9,7.5,13,7.2,19.4c-0.3,7.3-5.2,13.4-10,18.3C60.7,93,61.1,93.5,61.3,93.2L61.3,93.2z"/>
	</g>
</g>
</svg>
