<?xml version="1.0" encoding="utf-8"?>
<!-- Generator: Adobe Illustrator 22.0.1, SVG Export Plug-In . SVG Version: 6.00 Build 0)  -->
<svg version="1.1" id="Capa_1" xmlns="http://www.w3.org/2000/svg" xmlns:xlink="http://www.w3.org/1999/xlink" x="0px" y="0px"
	 viewBox="0 0 350 205.3" style="enable-background:new 0 0 350 205.3;" xml:space="preserve">
<style type="text/css">
	.st0{clip-path:url(#SVGID_2_);}
	.st1{fill:#CBFFBF;}
	.st2{clip-path:url(#SVGID_2_);fill:#FFFFFF;}
	.st3{clip-path:url(#SVGID_2_);fill:none;}
</style>
<g>
	<defs>
		<rect id="SVGID_1_" width="350" height="205"/>
	</defs>
	<clipPath id="SVGID_2_">
		<use xlink:href="#SVGID_1_"  style="overflow:visible;"/>
	</clipPath>
	<g class="st0">
		<rect y="1" class="st1" width="350" height="205"/>
	</g>
	<polygon class="st2" points="17.1,79.7 22.3,77 21.3,82.8 25.6,86.9 19.7,87.7 17.1,93 14.5,87.7 8.7,86.9 12.9,82.8 11.9,77 	"/>
	<polygon class="st2" points="62.1,79.7 67.3,77 66.3,82.8 70.6,86.9 64.7,87.7 62.1,93 59.5,87.7 53.7,86.9 57.9,82.8 56.9,77 	"/>
	<polygon class="st2" points="107.1,79.7 112.3,77 111.3,82.8 115.6,86.9 109.7,87.7 107.1,93 104.5,87.7 98.7,86.9 102.9,82.8 
		101.9,77 	"/>
	<polygon class="st2" points="152.1,79.7 157.3,77 156.3,82.8 160.6,86.9 154.7,87.7 152.1,93 149.5,87.7 143.7,86.9 147.9,82.8 
		146.9,77 	"/>
	<polygon class="st2" points="197.1,79.7 202.3,77 201.3,82.8 205.6,86.9 199.7,87.7 197.1,93 194.5,87.7 188.7,86.9 192.9,82.8 
		191.9,77 	"/>
	<polygon class="st2" points="242.1,79.7 247.3,77 246.3,82.8 250.6,86.9 244.7,87.7 242.1,93 239.5,87.7 233.7,86.9 237.9,82.8 
		236.9,77 	"/>
	<polygon class="st2" points="287.1,79.7 292.3,77 291.3,82.8 295.6,86.9 289.7,87.7 287.1,93 284.5,87.7 278.7,86.9 282.9,82.8 
		281.9,77 	"/>
	<polygon class="st2" points="332.1,79.7 337.3,77 336.3,82.8 340.6,86.9 334.7,87.7 332.1,93 329.5,87.7 323.7,86.9 327.9,82.8 
		326.9,77 	"/>
	<polygon class="st2" points="-5.9,103.7 -0.7,101 -1.7,106.8 2.6,110.9 -3.3,111.7 -5.9,117 -8.5,111.7 -14.3,110.9 -10.1,106.8 
		-11.1,101 	"/>
	<polygon class="st2" points="354.1,103.7 359.3,101 358.3,106.8 362.6,110.9 356.7,111.7 354.1,117 351.5,111.7 345.7,110.9 
		349.9,106.8 348.9,101 	"/>
	<polygon class="st2" points="39.1,103.7 44.3,101 43.3,106.8 47.6,110.9 41.7,111.7 39.1,117 36.5,111.7 30.7,110.9 34.9,106.8 
		33.9,101 	"/>
	<polygon class="st2" points="84.1,103.7 89.3,101 88.3,106.8 92.6,110.9 86.7,111.7 84.1,117 81.5,111.7 75.7,110.9 79.9,106.8 
		78.9,101 	"/>
	<polygon class="st2" points="129.1,103.7 134.3,101 133.3,106.8 137.6,110.9 131.7,111.7 129.1,117 126.5,111.7 120.7,110.9 
		124.9,106.8 123.9,101 	"/>
	<polygon class="st2" points="174.1,103.7 179.3,101 178.3,106.8 182.6,110.9 176.7,111.7 174.1,117 171.5,111.7 165.7,110.9 
		169.9,106.8 168.9,101 	"/>
	<polygon class="st2" points="219.1,103.7 224.3,101 223.3,106.8 227.6,110.9 221.7,111.7 219.1,117 216.5,111.7 210.7,110.9 
		214.9,106.8 213.9,101 	"/>
	<polygon class="st2" points="264.1,103.7 269.3,101 268.3,106.8 272.6,110.9 266.7,111.7 264.1,117 261.5,111.7 255.7,110.9 
		259.9,106.8 258.9,101 	"/>
	<polygon class="st2" points="309.1,103.7 314.3,101 313.3,106.8 317.6,110.9 311.7,111.7 309.1,117 306.5,111.7 300.7,110.9 
		304.9,106.8 303.9,101 	"/>
	<polygon class="st2" points="18.1,128.7 23.3,126 22.3,131.8 26.6,135.9 20.7,136.7 18.1,142 15.5,136.7 9.7,135.9 13.9,131.8 
		12.9,126 	"/>
	<polygon class="st2" points="63.1,128.7 68.3,126 67.3,131.8 71.6,135.9 65.7,136.7 63.1,142 60.5,136.7 54.7,135.9 58.9,131.8 
		57.9,126 	"/>
	<polygon class="st2" points="108.1,128.7 113.3,126 112.3,131.8 116.6,135.9 110.7,136.7 108.1,142 105.5,136.7 99.7,135.9 
		103.9,131.8 102.9,126 	"/>
	<polygon class="st2" points="153.1,128.7 158.3,126 157.3,131.8 161.6,135.9 155.7,136.7 153.1,142 150.5,136.7 144.7,135.9 
		148.9,131.8 147.9,126 	"/>
	<polygon class="st2" points="198.1,128.7 203.3,126 202.3,131.8 206.6,135.9 200.7,136.7 198.1,142 195.5,136.7 189.7,135.9 
		193.9,131.8 192.9,126 	"/>
	<polygon class="st2" points="243.1,128.7 248.3,126 247.3,131.8 251.6,135.9 245.7,136.7 243.1,142 240.5,136.7 234.7,135.9 
		238.9,131.8 237.9,126 	"/>
	<polygon class="st2" points="288.1,128.7 293.3,126 292.3,131.8 296.6,135.9 290.7,136.7 288.1,142 285.5,136.7 279.7,135.9 
		283.9,131.8 282.9,126 	"/>
	<polygon class="st2" points="333.1,128.7 338.3,126 337.3,131.8 341.6,135.9 335.7,136.7 333.1,142 330.5,136.7 324.7,135.9 
		328.9,131.8 327.9,126 	"/>
	<polygon class="st2" points="-4.9,152.7 0.3,150 -0.7,155.8 3.6,159.9 -2.3,160.7 -4.9,166 -7.5,160.7 -13.3,159.9 -9.1,155.8 
		-10.1,150 	"/>
	<polygon class="st2" points="355.1,152.7 360.3,150 359.3,155.8 363.6,159.9 357.7,160.7 355.1,166 352.5,160.7 346.7,159.9 
		350.9,155.8 349.9,150 	"/>
	<polygon class="st2" points="40.1,152.7 45.3,150 44.3,155.8 48.6,159.9 42.7,160.7 40.1,166 37.5,160.7 31.7,159.9 35.9,155.8 
		34.9,150 	"/>
	<polygon class="st2" points="85.1,152.7 90.3,150 89.3,155.8 93.6,159.9 87.7,160.7 85.1,166 82.5,160.7 76.7,159.9 80.9,155.8 
		79.9,150 	"/>
	<polygon class="st2" points="130.1,152.7 135.3,150 134.3,155.8 138.6,159.9 132.7,160.7 130.1,166 127.5,160.7 121.7,159.9 
		125.9,155.8 124.9,150 	"/>
	<polygon class="st2" points="175.1,152.7 180.3,150 179.3,155.8 183.6,159.9 177.7,160.7 175.1,166 172.5,160.7 166.7,159.9 
		170.9,155.8 169.9,150 	"/>
	<polygon class="st2" points="220.1,152.7 225.3,150 224.3,155.8 228.6,159.9 222.7,160.7 220.1,166 217.5,160.7 211.7,159.9 
		215.9,155.8 214.9,150 	"/>
	<polygon class="st2" points="265.1,152.7 270.3,150 269.3,155.8 273.6,159.9 267.7,160.7 265.1,166 262.5,160.7 256.7,159.9 
		260.9,155.8 259.9,150 	"/>
	<polygon class="st2" points="310.1,152.7 315.3,150 314.3,155.8 318.6,159.9 312.7,160.7 310.1,166 307.5,160.7 301.7,159.9 
		305.9,155.8 304.9,150 	"/>
	<polygon class="st2" points="19.1,177.7 24.3,175 23.3,180.8 27.6,184.9 21.7,185.7 19.1,191 16.5,185.7 10.7,184.9 14.9,180.8 
		13.9,175 	"/>
	<polygon class="st2" points="64.1,177.7 69.3,175 68.3,180.8 72.6,184.9 66.7,185.7 64.1,191 61.5,185.7 55.7,184.9 59.9,180.8 
		58.9,175 	"/>
	<polygon class="st2" points="109.1,177.7 114.3,175 113.3,180.8 117.6,184.9 111.7,185.7 109.1,191 106.5,185.7 100.7,184.9 
		104.9,180.8 103.9,175 	"/>
	<polygon class="st2" points="154.1,177.7 159.3,175 158.3,180.8 162.6,184.9 156.7,185.7 154.1,191 151.5,185.7 145.7,184.9 
		149.9,180.8 148.9,175 	"/>
	<polygon class="st2" points="199.1,177.7 204.3,175 203.3,180.8 207.6,184.9 201.7,185.7 199.1,191 196.5,185.7 190.7,184.9 
		194.9,180.8 193.9,175 	"/>
	<polygon class="st2" points="244.1,177.7 249.3,175 248.3,180.8 252.6,184.9 246.7,185.7 244.1,191 241.5,185.7 235.7,184.9 
		239.9,180.8 238.9,175 	"/>
	<polygon class="st2" points="289.1,177.7 294.3,175 293.3,180.8 297.6,184.9 291.7,185.7 289.1,191 286.5,185.7 280.7,184.9 
		284.9,180.8 283.9,175 	"/>
	<polygon class="st2" points="334.1,177.7 339.3,175 338.3,180.8 342.6,184.9 336.7,185.7 334.1,191 331.5,185.7 325.7,184.9 
		329.9,180.8 328.9,175 	"/>
	<polygon class="st2" points="-3.9,201.7 1.3,199 0.3,204.8 4.6,208.9 -1.3,209.7 -3.9,215 -6.5,209.7 -12.3,208.9 -8.1,204.8 
		-9.1,199 	"/>
	<polygon class="st2" points="356.1,201.7 361.3,199 360.3,204.8 364.6,208.9 358.7,209.7 356.1,215 353.5,209.7 347.7,208.9 
		351.9,204.8 350.9,199 	"/>
	<polygon class="st2" points="41.1,201.7 46.3,199 45.3,204.8 49.6,208.9 43.7,209.7 41.1,215 38.5,209.7 32.7,208.9 36.9,204.8 
		35.9,199 	"/>
	<polygon class="st2" points="86.1,201.7 91.3,199 90.3,204.8 94.6,208.9 88.7,209.7 86.1,215 83.5,209.7 77.7,208.9 81.9,204.8 
		80.9,199 	"/>
	<polygon class="st2" points="131.1,201.7 136.3,199 135.3,204.8 139.6,208.9 133.7,209.7 131.1,215 128.5,209.7 122.7,208.9 
		126.9,204.8 125.9,199 	"/>
	<polygon class="st2" points="176.1,201.7 181.3,199 180.3,204.8 184.6,208.9 178.7,209.7 176.1,215 173.5,209.7 167.7,208.9 
		171.9,204.8 170.9,199 	"/>
	<polygon class="st2" points="221.1,201.7 226.3,199 225.3,204.8 229.6,208.9 223.7,209.7 221.1,215 218.5,209.7 212.7,208.9 
		216.9,204.8 215.9,199 	"/>
	<polygon class="st2" points="266.1,201.7 271.3,199 270.3,204.8 274.6,208.9 268.7,209.7 266.1,215 263.5,209.7 257.7,208.9 
		261.9,204.8 260.9,199 	"/>
	<polygon class="st2" points="311.1,201.7 316.3,199 315.3,204.8 319.6,208.9 313.7,209.7 311.1,215 308.5,209.7 302.7,208.9 
		306.9,204.8 305.9,199 	"/>
	<rect y="81" class="st3" width="350" height="125"/>
	<polygon class="st2" points="16.1,-67.3 21.3,-70 20.3,-64.2 24.6,-60.1 18.7,-59.3 16.1,-54 13.5,-59.3 7.7,-60.1 11.9,-64.2 
		10.9,-70 	"/>
	<polygon class="st2" points="61.1,-67.3 66.3,-70 65.3,-64.2 69.6,-60.1 63.7,-59.3 61.1,-54 58.5,-59.3 52.7,-60.1 56.9,-64.2 
		55.9,-70 	"/>
	<polygon class="st2" points="106.1,-67.3 111.3,-70 110.3,-64.2 114.6,-60.1 108.7,-59.3 106.1,-54 103.5,-59.3 97.7,-60.1 
		101.9,-64.2 100.9,-70 	"/>
	<polygon class="st2" points="151.1,-67.3 156.3,-70 155.3,-64.2 159.6,-60.1 153.7,-59.3 151.1,-54 148.5,-59.3 142.7,-60.1 
		146.9,-64.2 145.9,-70 	"/>
	<polygon class="st2" points="196.1,-67.3 201.3,-70 200.3,-64.2 204.6,-60.1 198.7,-59.3 196.1,-54 193.5,-59.3 187.7,-60.1 
		191.9,-64.2 190.9,-70 	"/>
	<polygon class="st2" points="241.1,-67.3 246.3,-70 245.3,-64.2 249.6,-60.1 243.7,-59.3 241.1,-54 238.5,-59.3 232.7,-60.1 
		236.9,-64.2 235.9,-70 	"/>
	<polygon class="st2" points="286.1,-67.3 291.3,-70 290.3,-64.2 294.6,-60.1 288.7,-59.3 286.1,-54 283.5,-59.3 277.7,-60.1 
		281.9,-64.2 280.9,-70 	"/>
	<polygon class="st2" points="331.1,-67.3 336.3,-70 335.3,-64.2 339.6,-60.1 333.7,-59.3 331.1,-54 328.5,-59.3 322.7,-60.1 
		326.9,-64.2 325.9,-70 	"/>
	<polygon class="st2" points="-6.9,-43.3 -1.7,-46 -2.7,-40.2 1.6,-36.1 -4.3,-35.3 -6.9,-30 -9.5,-35.3 -15.3,-36.1 -11.1,-40.2 
		-12.1,-46 	"/>
	<polygon class="st2" points="353.1,-43.3 358.3,-46 357.3,-40.2 361.6,-36.1 355.7,-35.3 353.1,-30 350.5,-35.3 344.7,-36.1 
		348.9,-40.2 347.9,-46 	"/>
	<polygon class="st2" points="38.1,-43.3 43.3,-46 42.3,-40.2 46.6,-36.1 40.7,-35.3 38.1,-30 35.5,-35.3 29.7,-36.1 33.9,-40.2 
		32.9,-46 	"/>
	<polygon class="st2" points="83.1,-43.3 88.3,-46 87.3,-40.2 91.6,-36.1 85.7,-35.3 83.1,-30 80.5,-35.3 74.7,-36.1 78.9,-40.2 
		77.9,-46 	"/>
	<polygon class="st2" points="128.1,-43.3 133.3,-46 132.3,-40.2 136.6,-36.1 130.7,-35.3 128.1,-30 125.5,-35.3 119.7,-36.1 
		123.9,-40.2 122.9,-46 	"/>
	<polygon class="st2" points="173.1,-43.3 178.3,-46 177.3,-40.2 181.6,-36.1 175.7,-35.3 173.1,-30 170.5,-35.3 164.7,-36.1 
		168.9,-40.2 167.9,-46 	"/>
	<polygon class="st2" points="218.1,-43.3 223.3,-46 222.3,-40.2 226.6,-36.1 220.7,-35.3 218.1,-30 215.5,-35.3 209.7,-36.1 
		213.9,-40.2 212.9,-46 	"/>
	<polygon class="st2" points="263.1,-43.3 268.3,-46 267.3,-40.2 271.6,-36.1 265.7,-35.3 263.1,-30 260.5,-35.3 254.7,-36.1 
		258.9,-40.2 257.9,-46 	"/>
	<polygon class="st2" points="308.1,-43.3 313.3,-46 312.3,-40.2 316.6,-36.1 310.7,-35.3 308.1,-30 305.5,-35.3 299.7,-36.1 
		303.9,-40.2 302.9,-46 	"/>
	<polygon class="st2" points="17.1,-18.3 22.3,-21 21.3,-15.2 25.6,-11.1 19.7,-10.3 17.1,-5 14.5,-10.3 8.7,-11.1 12.9,-15.2 
		11.9,-21 	"/>
	<polygon class="st2" points="62.1,-18.3 67.3,-21 66.3,-15.2 70.6,-11.1 64.7,-10.3 62.1,-5 59.5,-10.3 53.7,-11.1 57.9,-15.2 
		56.9,-21 	"/>
	<polygon class="st2" points="107.1,-18.3 112.3,-21 111.3,-15.2 115.6,-11.1 109.7,-10.3 107.1,-5 104.5,-10.3 98.7,-11.1 
		102.9,-15.2 101.9,-21 	"/>
	<polygon class="st2" points="152.1,-18.3 157.3,-21 156.3,-15.2 160.6,-11.1 154.7,-10.3 152.1,-5 149.5,-10.3 143.7,-11.1 
		147.9,-15.2 146.9,-21 	"/>
	<polygon class="st2" points="197.1,-18.3 202.3,-21 201.3,-15.2 205.6,-11.1 199.7,-10.3 197.1,-5 194.5,-10.3 188.7,-11.1 
		192.9,-15.2 191.9,-21 	"/>
	<polygon class="st2" points="242.1,-18.3 247.3,-21 246.3,-15.2 250.6,-11.1 244.7,-10.3 242.1,-5 239.5,-10.3 233.7,-11.1 
		237.9,-15.2 236.9,-21 	"/>
	<polygon class="st2" points="287.1,-18.3 292.3,-21 291.3,-15.2 295.6,-11.1 289.7,-10.3 287.1,-5 284.5,-10.3 278.7,-11.1 
		282.9,-15.2 281.9,-21 	"/>
	<polygon class="st2" points="332.1,-18.3 337.3,-21 336.3,-15.2 340.6,-11.1 334.7,-10.3 332.1,-5 329.5,-10.3 323.7,-11.1 
		327.9,-15.2 326.9,-21 	"/>
	<polygon class="st2" points="-5.9,5.7 -0.7,3 -1.7,8.8 2.6,12.9 -3.3,13.7 -5.9,19 -8.5,13.7 -14.3,12.9 -10.1,8.8 -11.1,3 	"/>
	<polygon class="st2" points="354.1,5.7 359.3,3 358.3,8.8 362.6,12.9 356.7,13.7 354.1,19 351.5,13.7 345.7,12.9 349.9,8.8 
		348.9,3 	"/>
	<polygon class="st2" points="39.1,5.7 44.3,3 43.3,8.8 47.6,12.9 41.7,13.7 39.1,19 36.5,13.7 30.7,12.9 34.9,8.8 33.9,3 	"/>
	<polygon class="st2" points="84.1,5.7 89.3,3 88.3,8.8 92.6,12.9 86.7,13.7 84.1,19 81.5,13.7 75.7,12.9 79.9,8.8 78.9,3 	"/>
	<polygon class="st2" points="129.1,5.7 134.3,3 133.3,8.8 137.6,12.9 131.7,13.7 129.1,19 126.5,13.7 120.7,12.9 124.9,8.8 
		123.9,3 	"/>
	<polygon class="st2" points="174.1,5.7 179.3,3 178.3,8.8 182.6,12.9 176.7,13.7 174.1,19 171.5,13.7 165.7,12.9 169.9,8.8 
		168.9,3 	"/>
	<polygon class="st2" points="219.1,5.7 224.3,3 223.3,8.8 227.6,12.9 221.7,13.7 219.1,19 216.5,13.7 210.7,12.9 214.9,8.8 
		213.9,3 	"/>
	<polygon class="st2" points="264.1,5.7 269.3,3 268.3,8.8 272.6,12.9 266.7,13.7 264.1,19 261.5,13.7 255.7,12.9 259.9,8.8 
		258.9,3 	"/>
	<polygon class="st2" points="309.1,5.7 314.3,3 313.3,8.8 317.6,12.9 311.7,13.7 309.1,19 306.5,13.7 300.7,12.9 304.9,8.8 
		303.9,3 	"/>
	<polygon class="st2" points="18.1,30.7 23.3,28 22.3,33.8 26.6,37.9 20.7,38.7 18.1,44 15.5,38.7 9.7,37.9 13.9,33.8 12.9,28 	"/>
	<polygon class="st2" points="63.1,30.7 68.3,28 67.3,33.8 71.6,37.9 65.7,38.7 63.1,44 60.5,38.7 54.7,37.9 58.9,33.8 57.9,28 	"/>
	<polygon class="st2" points="108.1,30.7 113.3,28 112.3,33.8 116.6,37.9 110.7,38.7 108.1,44 105.5,38.7 99.7,37.9 103.9,33.8 
		102.9,28 	"/>
	<polygon class="st2" points="153.1,30.7 158.3,28 157.3,33.8 161.6,37.9 155.7,38.7 153.1,44 150.5,38.7 144.7,37.9 148.9,33.8 
		147.9,28 	"/>
	<polygon class="st2" points="198.1,30.7 203.3,28 202.3,33.8 206.6,37.9 200.7,38.7 198.1,44 195.5,38.7 189.7,37.9 193.9,33.8 
		192.9,28 	"/>
	<polygon class="st2" points="243.1,30.7 248.3,28 247.3,33.8 251.6,37.9 245.7,38.7 243.1,44 240.5,38.7 234.7,37.9 238.9,33.8 
		237.9,28 	"/>
	<polygon class="st2" points="288.1,30.7 293.3,28 292.3,33.8 296.6,37.9 290.7,38.7 288.1,44 285.5,38.7 279.7,37.9 283.9,33.8 
		282.9,28 	"/>
	<polygon class="st2" points="333.1,30.7 338.3,28 337.3,33.8 341.6,37.9 335.7,38.7 333.1,44 330.5,38.7 324.7,37.9 328.9,33.8 
		327.9,28 	"/>
	<polygon class="st2" points="-4.9,54.7 0.3,52 -0.7,57.8 3.6,61.9 -2.3,62.7 -4.9,68 -7.5,62.7 -13.3,61.9 -9.1,57.8 -10.1,52 	"/>
	<polygon class="st2" points="355.1,54.7 360.3,52 359.3,57.8 363.6,61.9 357.7,62.7 355.1,68 352.5,62.7 346.7,61.9 350.9,57.8 
		349.9,52 	"/>
	<polygon class="st2" points="40.1,54.7 45.3,52 44.3,57.8 48.6,61.9 42.7,62.7 40.1,68 37.5,62.7 31.7,61.9 35.9,57.8 34.9,52 	"/>
	<polygon class="st2" points="85.1,54.7 90.3,52 89.3,57.8 93.6,61.9 87.7,62.7 85.1,68 82.5,62.7 76.7,61.9 80.9,57.8 79.9,52 	"/>
	<polygon class="st2" points="130.1,54.7 135.3,52 134.3,57.8 138.6,61.9 132.7,62.7 130.1,68 127.5,62.7 121.7,61.9 125.9,57.8 
		124.9,52 	"/>
	<polygon class="st2" points="175.1,54.7 180.3,52 179.3,57.8 183.6,61.9 177.7,62.7 175.1,68 172.5,62.7 166.7,61.9 170.9,57.8 
		169.9,52 	"/>
	<polygon class="st2" points="220.1,54.7 225.3,52 224.3,57.8 228.6,61.9 222.7,62.7 220.1,68 217.5,62.7 211.7,61.9 215.9,57.8 
		214.9,52 	"/>
	<polygon class="st2" points="265.1,54.7 270.3,52 269.3,57.8 273.6,61.9 267.7,62.7 265.1,68 262.5,62.7 256.7,61.9 260.9,57.8 
		259.9,52 	"/>
	<polygon class="st2" points="310.1,54.7 315.3,52 314.3,57.8 318.6,61.9 312.7,62.7 310.1,68 307.5,62.7 301.7,61.9 305.9,57.8 
		304.9,52 	"/>
	<rect x="-1" y="-66" class="st3" width="350" height="125"/>
</g>
</svg>
