<?xml version="1.0" encoding="utf-8"?>
<!-- Generator: Adobe Illustrator 22.0.1, SVG Export Plug-In . SVG Version: 6.00 Build 0)  -->
<svg version="1.1" id="Capa_1" xmlns="http://www.w3.org/2000/svg" xmlns:xlink="http://www.w3.org/1999/xlink" x="0px" y="0px"
	 viewBox="0 0 45 44.9" style="enable-background:new 0 0 45 44.9;" xml:space="preserve">
<style type="text/css">
	.st0{fill:#998675;}
</style>
<path class="st0" d="M29.3,44.8c0-5.3,0-10.6,0-16c0.3,0,0.5,0,0.7,0c1.5,0,3.1,0,4.6,0c0.7,0,1.1-0.3,1.2-1
	c0.2-1.6,0.4-3.3,0.6-4.9c0.1-0.9-0.3-1.3-1.3-1.3c-1.7,0-3.3,0-5,0c-0.2,0-0.5,0-0.8,0c0-1.8-0.1-3.6,0-5.4c0.1-1.4,1-2,2.5-2.1
	c1,0,2,0,3,0c1.1,0,1.4-0.4,1.4-1.4c0-1.3,0-2.6,0-3.9c0-0.8-0.3-1.2-1-1.2c-2.1,0-4.2,0-6.3,0.2c-3.6,0.5-6.2,3.2-6.5,6.8
	c-0.2,2-0.1,4-0.2,6c0,0.3,0,0.6,0,1c-1.2,0-2.4,0-3.6,0c-1.2,0-1.6,0.3-1.6,1.6c0,1.4,0,2.8,0,4.3c0,1.1,0.3,1.4,1.4,1.4
	c1.2,0,2.4,0,3.7,0c0,5.3,0,10.6,0,16c-0.2,0-0.5,0-0.7,0c-5.1,0-10.3,0-15.4,0c-3.4,0-6.1-2.7-6.1-6.1C0,27.9,0.1,17.2,0,6.4
	c0-3.7,2.7-6.5,6.4-6.5c10.8,0.1,21.6,0,32.4,0c3.4,0,6.1,2.6,6.1,6c0,11,0,21.9,0,32.9c0,3.3-2.7,6-6,6c-3,0-6,0-9,0
	C29.8,44.8,29.6,44.8,29.3,44.8z"/>
</svg>
