<?xml version="1.0" encoding="utf-8"?>
<!-- Generator: Adobe Illustrator 22.0.1, SVG Export Plug-In . SVG Version: 6.00 Build 0)  -->
<svg version="1.1" id="Capa_1" xmlns="http://www.w3.org/2000/svg" xmlns:xlink="http://www.w3.org/1999/xlink" x="0px" y="0px"
	 viewBox="0 0 63.7 64.3" style="enable-background:new 0 0 63.7 64.3;" xml:space="preserve">
<style type="text/css">
	.st0{fill:#FFFFFF;stroke:#998675;stroke-width:3;stroke-miterlimit:10;stroke-dasharray:2.251,3.6015;}
	.st1{fill:#998675;}
</style>
<circle class="st0" cx="31" cy="31" r="29.5"/>
<path class="st1" d="M14.2,33.3c-1.9,0-3.6,0-5.6,0c7.8-8,15.5-15.8,23.1-23.5c2.8,2.7,5.6,5.4,8.4,8.2c0-1.4,0-2.7,0-4.1
	c2.2,0,4.2,0,6.4,0c0,0.3,0,0.6,0,0.9c0,3.1,0,6.2,0,9.3c0,0.4,0.2,0.9,0.5,1.2c2.4,2.5,4.9,4.9,7.3,7.4c0.2,0.2,0.4,0.4,0.6,0.7
	c-1.9,0-3.7,0-5.6,0c0,5.1,0,10.1,0,15.2c-4.8,0-9.5,0-14.3,0c0-4.1,0-8.2,0-12.3c-2.2,0-4.2,0-6.4,0c0,4.1,0,8.2,0,12.3
	c-4.9,0-9.6,0-14.5,0C14.2,43.4,14.2,38.4,14.2,33.3z"/>
</svg>
