<?xml version="1.0" encoding="utf-8"?>
<!-- Generator: Adobe Illustrator 22.0.1, SVG Export Plug-In . SVG Version: 6.00 Build 0)  -->
<svg version="1.1" id="Capa_1" xmlns="http://www.w3.org/2000/svg" xmlns:xlink="http://www.w3.org/1999/xlink" x="0px" y="0px"
	 viewBox="0 0 47.7 48.3" style="enable-background:new 0 0 47.7 48.3;" xml:space="preserve">
<style type="text/css">
	.st0{fill:#998675;}
</style>
<g>
	<path class="st0" d="M47.9,24c0,4.1,0,8.2,0,12.4c0,1.9-0.3,3.7-1.1,5.4c-1.4,2.8-3.7,4.6-6.8,5.4c-1.5,0.4-3.1,0.4-4.6,0.4
		c-7.5,0-15,0-22.5,0c-1.5,0-3-0.1-4.5-0.5c-3.8-1.1-6.1-3.6-7.1-7.4c-0.4-1.4-0.4-2.9-0.4-4.3c0-7.6,0-15.1,0-22.7
		c0-1.5,0.1-3,0.5-4.5C2.5,4.3,5,1.9,8.8,0.9c1.3-0.3,2.7-0.4,4.1-0.4c7.7,0,15.5,0,23.2,0c1.4,0,2.8,0.1,4.2,0.5
		c3.8,1.1,6.2,3.6,7.2,7.4c0.3,1.1,0.4,2.2,0.4,3.3C47.9,15.8,47.9,19.9,47.9,24z M24.1,41.5C24.1,41.5,24.1,41.5,24.1,41.5
		c0.9,0,1.9,0,2.8,0c2.1,0,4.2,0,6.4-0.3c1.5-0.2,2.9-0.7,4.2-1.5c2.3-1.5,3.6-3.8,4.1-6.5c0.3-1.5,0.3-3.1,0.3-4.6
		c0-3.8,0-7.6-0.1-11.4c0-1.2-0.1-2.4-0.5-3.6c-0.9-3.3-3.1-5.5-6.4-6.5c-1.6-0.5-3.2-0.5-4.8-0.6c-2.7,0-5.4-0.1-8.2,0
		c-2,0-3.9,0.1-5.9,0.2c-1.5,0.1-2.9,0.5-4.2,1.3c-2.5,1.5-4,3.7-4.5,6.5c-0.3,1.6-0.3,3.2-0.3,4.8c0,3.5,0,7,0,10.5
		C7,31.4,7,33,7.5,34.5c0.8,2.6,2.3,4.5,4.7,5.7c1.5,0.8,3.2,1.1,4.9,1.1C19.4,41.4,21.8,41.5,24.1,41.5z"/>
	<path class="st0" d="M10,24c0-2.3,0-4.6,0.1-6.8c0-0.9,0.1-1.9,0.4-2.7c0.6-2.3,2.2-3.8,4.5-4.3c0.8-0.2,1.6-0.3,2.4-0.3
		c4.1,0,8.2-0.1,12.3-0.1c1.3,0,2.5,0,3.8,0.3c2.8,0.6,4.6,2.5,5,5.4c0.2,1.8,0.2,3.6,0.2,5.4c0,3,0,5.9,0,8.9c0,1.3,0,2.5-0.4,3.8
		c-0.7,2.6-2.4,4.1-5,4.5c-1.2,0.2-2.5,0.3-3.7,0.3c-3.6,0-7.2,0-10.9,0c-1.3,0-2.5-0.1-3.8-0.4c-2.6-0.7-4.3-2.6-4.6-5.4
		c-0.2-2-0.2-4-0.2-6C10,25.7,10,24.8,10,24C10,24,10,24,10,24z M33.3,24c0-4.9-4-9-9-9c-5,0-9,4-9,8.9c0,5,4,9,8.9,9
		C29.3,33,33.3,29,33.3,24z M35.8,14.7c0-1.1-0.9-2.1-2-2.1c-1.2,0-2.1,0.9-2.2,2c0,1.2,0.9,2.1,2.1,2.2
		C34.8,16.8,35.7,15.9,35.8,14.7z"/>
	<path class="st0" d="M30.2,24c0,3.3-2.6,5.9-5.9,5.8c-3.2,0-5.8-2.7-5.8-5.9c0-3.2,2.7-5.7,5.9-5.7C27.6,18.2,30.2,20.9,30.2,24z"
		/>
</g>
</svg>
