<?xml version="1.0" encoding="utf-8"?>
<!-- Generator: Adobe Illustrator 22.0.1, SVG Export Plug-In . SVG Version: 6.00 Build 0)  -->
<svg version="1.1" id="Capa_1" xmlns="http://www.w3.org/2000/svg" xmlns:xlink="http://www.w3.org/1999/xlink" x="0px" y="0px"
	 viewBox="0 0 93 95.3" style="enable-background:new 0 0 93 95.3;" xml:space="preserve">
<style type="text/css">
	.st0{fill:#F8D28B;}
	.st1{fill:#F0B3D0;}
	.st2{fill:#BCECE9;}
	.st3{fill:#FFFFFF;}
	.st4{fill:#E892BF;}
</style>
<g>
	<path class="st0" d="M10,39c-3-2.9-3-7.8-2.1-11.9c0.4-2.2,1-4.4,0.2-6.5c-1-2.7-4-4.1-5.8-6.4C0,11.1,0.2,6.4,2.8,3.5
		c2.6-2.8,7.4-3.4,10.6-1.3c2.7,1.8,4.4,5.2,7.5,6.3c2.7,0.9,5.7-0.2,8.6-0.3c3.3-0.1,6.6,1.4,8.8,3.9"/>
	<path class="st1" d="M8.1,41.5c8.9-10.7,19-20.4,30-28.8c1.1-0.9,2.3-1.8,3.8-2c3.4-0.7,6.3,2.3,8.4,5c0.7,0.8,1.3,1.7,1.5,2.7
		c0.3,1.8-1.1,3.4-2.3,4.8C39.6,33.3,29.2,43,18.3,52.1c-0.5,0.4-1,0.8-1.6,0.9c-0.7,0.1-1.4-0.3-2-0.6c-1.7-0.9-3.5-1.9-4.8-3.3
		c-1.3-1.4-2.3-3.4-1.9-5.3c0.5-2.8,3.3-4.6,4.3-7.3"/>
	<g>
		<path class="st2" d="M21,52.3c9.9,10.9,19.8,21.9,29.7,32.8c3.6,3.9,7.9,8.2,13.2,7.9c4.3-0.2,7.8-3.5,10.9-6.5
			c2.9-2.9,5.8-5.7,8.7-8.6c4.2-4.1,7.6-10.1,5.9-16.2c-0.9-3.4-3.6-5.9-6.2-8.3c-11-10.1-21.9-20.1-32.9-30.1"/>
		<g>
			<path class="st2" d="M19.6,53c4.7,6.8,10.5,12.8,16,18.9c5.5,6.1,10.7,12.8,16.7,18.3c3.5,3.2,7.8,5.8,12.8,5
				c6.2-1,10.6-6.5,14.8-10.6c7.2-7.1,16.8-16.9,9.6-27.5c-4.6-6.6-12-11.9-17.9-17.3c-6.6-6-13-12.2-19.7-18.2
				c-2.2-2-5.7,1.2-3.4,3.3c9.5,8.9,19.3,17.5,28.9,26.2c4.6,4.2,11.4,8.9,10,16c-1.2,5.7-5.9,9.6-9.9,13.5
				c-3.9,3.8-8.5,10.1-14.4,9.9c-5.9-0.2-10.1-6.2-13.8-10.2c-8.8-9.7-17.3-20.4-27.3-29C20.9,50.2,18.6,51.5,19.6,53L19.6,53z"/>
		</g>
	</g>
	<g>
		<path class="st3" d="M31.5,54.5c2.1,5.5,7.4,10,11.3,14.3c4.5,5,9.2,9.8,14,14.5c1.8,1.7,4.5-0.9,2.8-2.6
			c-4.7-4.8-9.4-9.6-14-14.5c-4-4.3-7.8-9.9-12.9-12.8C31.9,52.9,31.2,53.8,31.5,54.5L31.5,54.5z"/>
	</g>
	<g>
		<path class="st3" d="M41.2,46.4c6.4,11.6,18.4,21.2,28.2,29.8c2,1.8,5.1-1.1,3-2.9c-5.4-4.7-10.7-9.6-15.8-14.6
			C52,54.1,47.8,49,42.6,45C41.8,44.4,40.8,45.5,41.2,46.4L41.2,46.4z"/>
	</g>
	<g>
		<path class="st3" d="M49.5,38.3c8.2,9.7,17,18.9,26,27.8c2.2,2.1,5.6-1.1,3.4-3.3c-8.8-9.2-18-18-27.6-26.4
			C50.2,35.4,48.4,37,49.5,38.3L49.5,38.3z"/>
	</g>
	<g>
		<g>
			<path class="st4" d="M9.7,41.7c1.1,1.7,2.5,3.1,3.9,4.5c1.2,1.2,2.4,2.6,4,3.3c0.3,0.1,0.8-0.3,0.7-0.6c-0.6-1.6-1.9-2.9-3.1-4.2
				c-1.3-1.5-2.7-3-4.3-4.1C10.2,40.1,9.2,41,9.7,41.7L9.7,41.7z"/>
		</g>
		<g>
			<path class="st4" d="M13.4,36.7c1.8,4.1,5.5,9.6,9.4,11.9c0.5,0.3,1.1-0.3,0.8-0.8c-1-2.2-2.6-3.9-4.1-5.8c-1.7-2-3.3-4.2-5.3-6
				C13.8,35.6,13.2,36.1,13.4,36.7L13.4,36.7z"/>
		</g>
		<g>
			<path class="st4" d="M17.6,34c2.7,3.7,5.8,8.5,9.9,10.8c0.5,0.2,1.1-0.2,0.8-0.7c-2.4-4-6.7-7.3-9.7-10.9
				C17.9,32.5,17.1,33.4,17.6,34L17.6,34z"/>
		</g>
		<g>
			<path class="st4" d="M21.6,27.9c3.2,4.5,7.7,10.5,12.7,13c0.6,0.3,1.4-0.3,1.1-1c-2.7-5-8.7-9.4-13.3-12.5
				C21.8,27.2,21.3,27.6,21.6,27.9L21.6,27.9z"/>
		</g>
		<g>
			<path class="st4" d="M27.7,24.9c1.8,1.9,3.6,3.9,5.4,5.9c1.6,1.7,3.1,3.7,5.1,4.9c0.7,0.4,1.4-0.3,1.1-1c-1-2.1-3-3.7-4.6-5.4
				c-1.9-1.9-3.8-3.8-5.6-5.7C28.2,22.7,26.9,24,27.7,24.9L27.7,24.9z"/>
		</g>
		<g>
			<path class="st4" d="M33.5,19.4c2.7,3.3,5.5,7.1,9.1,9.4c0.5,0.3,1-0.3,0.8-0.7c-2.1-3.7-5.8-6.7-9-9.5
				C33.8,18,33,18.8,33.5,19.4L33.5,19.4z"/>
		</g>
		<g>
			<path class="st4" d="M36.9,13.5c3,3.5,6.2,8.1,10,10.7c0.5,0.4,1.2-0.3,0.9-0.9C45.7,19.1,41,15.7,37.2,13
				C36.9,12.8,36.6,13.3,36.9,13.5L36.9,13.5z"/>
		</g>
	</g>
	<g>
		<path class="st4" d="M16.4,54.2c3.7,0.2,6.3-2,9-4.4c3.9-3.5,7.5-7.3,11.4-10.8c5.7-5.2,14.4-11.7,15.3-20
			c0.1-1.2-1.8-1.8-2.3-0.7C46,25.5,39.1,31.3,33.3,37c-5.6,5.4-11.8,10.3-17.6,15.5C15,53.1,15.5,54.2,16.4,54.2L16.4,54.2z"/>
	</g>
	<g>
		<path class="st3" d="M5,7.4c0.4-0.6,0.8-1.2,1.4-1.6c0.4-0.3,0.9-0.5,1.4-0.8c0.3-0.2,0.3-0.7,0-0.9C6,3.1,4.4,5.3,3.6,6.6
			C3,7.5,4.4,8.3,5,7.4L5,7.4z"/>
	</g>
	<g>
		<path class="st3" d="M11.4,32c-0.8-2.1,1.1-4.3,1-6.5c0-0.6-0.8-0.9-1.1-0.3c-0.7,1.2-0.9,2.8-1.1,4.2c-0.2,1.1-0.2,2,0.2,3.1
			C10.6,33,11.6,32.6,11.4,32L11.4,32z"/>
	</g>
	<g>
		<path class="st3" d="M85.7,69.9c0.5-0.7,1-1.3,1.3-2.1c0.3-0.9,0.5-1.8,0.7-2.8c0.2-1.5,0.3-3.8-0.6-5.1c-0.4-0.6-1.4-0.6-1.6,0.2
			c-0.3,1.4,0,3.1-0.1,4.5c-0.1,1.6-0.3,3.4-0.6,5C84.7,70.1,85.4,70.4,85.7,69.9L85.7,69.9z"/>
	</g>
</g>
</svg>
