<?xml version="1.0" encoding="utf-8"?>
<!-- Generator: Adobe Illustrator 22.0.1, SVG Export Plug-In . SVG Version: 6.00 Build 0)  -->
<svg version="1.1" id="Capa_1" xmlns="http://www.w3.org/2000/svg" xmlns:xlink="http://www.w3.org/1999/xlink" x="0px" y="0px"
	 viewBox="0 0 109 91.3" style="enable-background:new 0 0 109 91.3;" xml:space="preserve">
<style type="text/css">
	.st0{fill:#6A86B0;}
	.st1{fill:#BCECE9;}
	.st2{fill:#F0B3D0;}
	.st3{fill:#F8D28B;}
	.st4{fill:#56618C;}
	.st5{fill:#FFFFFF;}
</style>
<g>
	<g>
		<g>
			<path class="st0" d="M64.2,49.5c5.6-11.5,3.8-26.3-4.5-36.1C55,7.9,48.4,3.9,41.2,2.9C34.1,2,26.8,4.2,20.9,8.2
				c-5.9,4-10.5,9.9-13.6,16.3c-2.9,5.8-4.6,12.7-2.3,18.8c1,2.6,2.6,4.9,4.3,7.2c4.8,6.5,10.2,13.1,17.8,16
				c7.6,2.8,16.4,1.3,23.3-3c6.9-4.3,12.1-10.9,15.8-18.1L64.2,49.5z"/>
			<g>
				<path class="st0" d="M15.6,61c-1.8-1.8-3.8-3.8-5.6-6c-1-1.2-2.1-2.5-3-3.9c-2-2.9-3.6-5.9-4.4-9c-3.5-13.7,7.7-29.7,18.8-36.4
					C29.3,1,38.1,0.2,46.2,2.7c1.3,0.4,2.7,0.9,3.9,1.6c3.3,1.5,6.3,3.7,9.1,6.3c2.1,2,3.9,4.5,5.5,7.4c0.8,1.4,1.5,2.9,2.1,4.4
					c2.9,7.3,3.8,15.8,1.1,22.7c0.1,0.4,0,0.8-0.2,1.3c0,0-0.1,0.1-0.1,0.1c-0.2,0.4-0.4,0.8-0.6,1.2c-0.2,0.4-0.4,0.8-0.7,1.2
					c0,0.1-0.1,0.1-0.1,0.2c-1.6,2.8-3.6,5.5-5.7,8c-0.4,0.5-0.9,1-1.3,1.4c-0.3,0.3-0.6,0.7-1,1c0,0,0,0,0,0
					c-0.1,0.1-0.2,0.2-0.4,0.3C51.5,65.9,43.5,70,34.4,69.8c-2.1,0-4.1-0.4-6-0.9c-2.2-0.6-4.3-1.5-6.2-2.7
					C19.8,64.8,17.6,63,15.6,61z M25.4,63.6c0.2,0.1,0.3,0.2,0.5,0.2c2,1,4.1,1.6,6,1.9c13.7,2.4,25.7-9.4,32.3-20.8
					c1-5,1.9-9.8,1-15.2c-0.2-1.2-0.4-2.3-0.8-3.5c-0.4-1.7-1-3.3-1.8-4.9c-2-4.4-4.8-8.4-8.6-11.4c-1.7-1.4-3.5-2.4-5.4-3.3
					c-1.4-0.7-2.9-1.2-4.4-1.5c-12.5-3.1-25.8,4.2-33,15.6C7.1,27.6,3.6,36.3,7.2,44c0.7,1.5,1.5,3,2.5,4.5c0.9,1.4,1.8,2.7,2.9,4
					C16.2,57.1,20.8,61.3,25.4,63.6z"/>
			</g>
		</g>
		<g>
			<path class="st0" d="M66,47c1.8,1.2,3.8,2.9,3.8,5c0,1.3-0.8,2.5-1.5,3.5c-0.6,0.9-1.3,1.8-2.1,2.5c-2.2,1.7-5.5,1.4-7.8-0.1
				L66,47z"/>
			<g>
				<path class="st0" d="M66.4,45.9c2,0.8,3.9,2.3,4.6,4.4c0.8,2.3-0.2,4.3-1.4,6.2c-2.8,4.4-7.7,5.9-12.3,2.9c-2-1.3,0.1-4,2.1-3
					c3.1,1.7,5.5,0.9,7.5-1.9c0.9-1.3,1.7-2.7,0.8-4.2c-0.6-1-1.7-1.8-2.5-2.7C64.4,46.9,65.3,45.5,66.4,45.9L66.4,45.9z"/>
			</g>
		</g>
		<g>
			<path class="st0" d="M67.7,55.2c8,2.7,15.6,9.5,22.4,14.3c1.5,1.1,1,3.5-0.8,3.9c-0.1,0-0.2,0-0.3,0.1c-1.1,0.2-2.5-0.8-2.3-2.1
				c0-0.1,0-0.2,0-0.2c0.3,0.6,0.6,1.3,0.9,1.9c-6.8-4.9-15.7-9.8-20.9-16.5C66.2,55.9,66.9,55,67.7,55.2L67.7,55.2z"/>
		</g>
		<g>
			<path class="st0" d="M88,72c-0.4-6.3,9.2-7.9,13.6-5.8c6.1,2.7,7.4,12.1,4.5,17.5c-3.2,6.1-9.8,6.8-15.4,3.6
				c-7.2-4.1-5.4-11.1-3.3-17.8c0.8-2.6,4.6-1.2,4,1.4c-0.7,2.9-2.7,7.1-1.4,10.1c1.6,3.8,7.9,5.5,11,3c3.5-2.7,3.5-8.1,1.6-11.8
				c-1.9-3.8-10.2-4.6-12.1,0C90,73.2,88.1,73.4,88,72L88,72z"/>
		</g>
	</g>
	<g>
		<path class="st1" d="M10,55c0.5-0.5,1.1-1,1.6-1.5c0.4-0.3,0.7-0.7,1.1-1c0.1-0.1,0.1-0.1,0.2-0.2c0.5-0.5,1-0.9,1.4-1.4
			c5.8-6,11.1-12.7,16.1-18.9c4.2-5.2,8.3-10.6,12.1-16.1c2.1-3,4.3-6,6.2-9.2c0.3-0.4,0.5-0.9,0.8-1.3c0.2-0.4,0.4-0.8,0.6-1.1
			c-1.3-0.6-2.6-1.1-3.9-1.6c-0.3,0.4-0.6,0.7-0.8,1.1c-0.3,0.5-0.7,0.9-1,1.4c-1.9,2.7-3.7,5.5-5.7,8.1c-3.6,4.9-7.3,9.7-11.2,14.5
			c-4.8,5.9-9.7,12.2-15.1,17.9c-0.8,0.9-1.7,1.8-2.6,2.7c-0.1,0.1-0.1,0.1-0.2,0.2c-0.4,0.4-0.7,0.8-1.1,1.1
			c-0.5,0.5-1.1,1-1.6,1.5C7.9,52.5,8.9,53.8,10,55z"/>
	</g>
	<g>
		<path class="st1" d="M22.2,66.2c2,1.2,4,2.1,6.2,2.7c0.6-0.5,1.2-1,1.8-1.5c0.6-0.5,1.1-1,1.7-1.6c1.8-1.7,3.4-3.3,5-4.9
			c4.6-4.5,8.9-9.2,13-14.2c4.5-5.5,8.7-11.3,12.5-17.3c0.6-1,1.4-2.1,2-3.2c0.4-0.7,0.8-1.3,1.2-2c0.4-0.6,0.7-1.3,1.1-1.9
			c-0.6-1.5-1.3-3-2.1-4.4c-0.3,0.5-0.6,1.1-0.9,1.6l0,0c-0.3,0.6-0.7,1.2-1.1,1.7c-5.1,8.2-11.7,15.8-17.8,23
			c-4.4,5.2-9.1,10.2-14.2,14.8c-1.7,1.5-3.5,3-5.3,4.4c-0.5,0.4-1.1,0.9-1.6,1.3C23.2,65.4,22.7,65.8,22.2,66.2z"/>
	</g>
	<g>
		<path class="st2" d="M51.2,16.8C51.2,16.8,51.2,16.8,51.2,16.8c1.3-1,3.2-1,4.2,0.3c1,1.3,0.9,3.1-0.4,4.1c0,0-0.1,0.1-0.1,0.1
			c-0.9,0.8-2.5,0.9-3.5,0.2c-1-0.8-1.5-2.1-1.1-3.3c0,0,0-0.1,0-0.1c0.4,1.1,0.7,2.2,1.1,3.4c0,0-0.1,0-0.1-0.1
			C49.8,20.4,49.8,17.9,51.2,16.8L51.2,16.8z"/>
	</g>
	<g>
		<path class="st2" d="M24,58.5c-0.9,1.2-2.8,1.7-4,0.7c-1.3-1-1.7-2.7-0.7-4c0.9-1.2,2.8-1.7,4-0.7C24.5,55.5,24.9,57.2,24,58.5
			L24,58.5z"/>
	</g>
	<g>
		<path class="st3" d="M46.5,33.9c-0.9,1.2-2.8,1.7-4,0.7c-1.2-0.9-1.6-2.7-0.7-4c0.9-1.2,2.8-1.7,4-0.7
			C47,30.8,47.4,32.6,46.5,33.9L46.5,33.9z"/>
	</g>
	<g>
		<path class="st3" d="M31.2,49.9c-1.3,1.9-4.2-0.1-2.9-2C29.6,46.1,32.4,48.1,31.2,49.9L31.2,49.9z"/>
	</g>
	<g>
		<path class="st1" d="M39,42.2c-0.9,1.3-2.8,1.7-4.1,0.7c-1.3-1-1.7-2.7-0.7-4.1c0.9-1.3,2.8-1.7,4.1-0.7
			C39.5,39.1,39.9,40.8,39,42.2L39,42.2z"/>
	</g>
	<g>
		<path class="st4" d="M66.3,49.6c-0.6,2.2-1.8,4.3-3.1,6.1c-1.1,1.6-2.4,3.6-4.3,4.3c-0.5,0.2-1-0.2-0.8-0.7
			c0.6-1.8,2.3-3.3,3.4-4.8c1.3-1.8,2.4-3.7,3.8-5.5C65.8,48.6,66.5,49,66.3,49.6L66.3,49.6z"/>
	</g>
	<g>
		<path class="st4" d="M69.1,57.4c6.7,2.5,13,8.6,18.8,12.8c1,0.7-0.1,2.2-1.1,1.5c-5.9-4.2-13.6-7.9-18.5-13.2
			C67.8,58,68.4,57.2,69.1,57.4L69.1,57.4z"/>
	</g>
	<g>
		<path class="st4" d="M100.6,69.5c1.9,0.1,3.5,2.1,4.1,3.8c0.7,2.1-0.3,5.1-0.7,7.2c0,0-0.1,0-0.1,0c0.3-2.2,0.7-4.1-0.3-6.1
			c-0.4-0.8-0.7-1.6-1.4-2.3c-0.7-0.7-1.5-1.1-2.2-1.8C99.9,70,100.2,69.5,100.6,69.5L100.6,69.5z"/>
	</g>
	<g>
		<path class="st4" d="M86.8,74.4c-0.1,1.8-0.5,3.7-0.2,5.5c0.4,2.3,2.5,4.6,4.4,6c4.6,3.4,9.6,1.3,13-2.5c0.4-0.5,1.4-0.1,1.1,0.5
			c-2.1,4.8-8.2,6.6-12.8,4.2c-5-2.6-7.2-8.4-5.6-13.7C86.6,74.2,86.8,74.3,86.8,74.4L86.8,74.4z"/>
	</g>
	<g>
		<path class="st5" d="M15.5,20c-3.4,5.4-5.7,10.5-5.3,17c0.3,5.4,3.1,9.8,4.2,14.9c0.2,0.9-0.9,1.2-1.4,0.7
			c-8.1-7.8-7.5-26.7,2-33.1C15.3,19.2,15.8,19.6,15.5,20L15.5,20z"/>
	</g>
</g>
</svg>
