<?xml version="1.0" encoding="utf-8"?>
<!-- Generator: Adobe Illustrator 22.0.1, SVG Export Plug-In . SVG Version: 6.00 Build 0)  -->
<svg version="1.1" id="Capa_1" xmlns="http://www.w3.org/2000/svg" xmlns:xlink="http://www.w3.org/1999/xlink" x="0px" y="0px"
	 viewBox="0 0 105.5 90.3" style="enable-background:new 0 0 105.5 90.3;" xml:space="preserve">
<style type="text/css">
	.st0{fill:#6DAFBF;}
	.st1{fill:#8DCCD3;}
	.st2{fill:#BCECE9;}
	.st3{fill:#F8D28B;}
	.st4{fill:#FFFFFF;}
</style>
<g>
	<g>
		<g>
			<path class="st0" d="M8.5,41.6c4.8,1.9,7.8,7.5,9.3,12.4c1.5,5,1.5,10.3,1.3,15.5c-0.1,2.8-0.2,5.9,1.4,8.2
				c1,1.4,2.5,2.3,3.9,3.2c4.3,2.5,8.9,4.4,13.6,5.9c3,0.9,6.3,1.6,9.4,1c4.9-1.1,8.3-5.2,12.3-8.2c4.9-3.7,10.8-5.9,17-6.2
				c0,0,11.7-36.6-15.7-48.8C33.6,12.2,8.5,41.6,8.5,41.6z"/>
			<g>
				<path class="st0" d="M7.9,42.2c9.9,6.8,9.4,18.5,9.4,29.1c0,8.7,6.7,11.8,13.9,14.8c6.9,2.9,14.6,5.5,21.5,1.4
					c3.5-2.1,6.2-5.2,9.5-7.4c4.4-3,9.5-4.5,14.8-4.9c0.7,0,1.4-0.6,1.6-1.2c4-12.6,4.3-28.5-3.1-39.9c-12.2-19-37.4-16.8-54.1-5.9
					C16.1,31.6,11.1,35.7,7,40.5c-1.5,1.8,1.3,4,2.8,2.3c8.1-9.4,20.3-17.4,32.6-19.1c10.3-1.4,21.6,2.2,28.1,10.4
					c5.4,6.8,6.9,15.7,6.4,24.2c-0.2,4.7-0.8,9.7-2.3,14.2c0.5-0.4,1.1-0.8,1.6-1.2c-7.7,0.6-14.3,3.6-20.2,8.6
					c-3.1,2.6-6.3,5.8-10.6,6.2c-5.2,0.5-10.9-2.2-15.5-4.3c-2.7-1.2-6.4-2.6-8.1-5.1c-1.7-2.4-1.2-5.9-1.1-8.6
					c0-3.6,0-7.2-0.6-10.8C19,50.6,15.7,42.9,8.8,40.8C8,40.6,7.1,41.7,7.9,42.2z"/>
			</g>
		</g>
		<g>
			<path class="st1" d="M18.3,2.6c-2.8,6.1-5.6,12.2-8.4,18.2C7.7,25.5,5.5,30.3,4,35.2c-0.4,1.4-0.7,3,0.1,4.1
				c0.4,0.5,1,0.9,1.6,1.2c4.9,2.7,10.6,4.1,16.2,3.5c5.6-0.6,11-3.3,14.5-7.6c2.7-3.3,4.2-7.4,5.7-11.4"/>
			<g>
				<path class="st1" d="M17.4,1.8C12.2,9.8,8.2,19.3,4.6,28.1c-2.9,6.8-5,12,2.6,15.5c7.2,3.2,15.6,3.8,22.9,0.4
					C37,40.8,43.2,33,43.7,25.2c0.1-1.5-1.8-2.6-2.8-1.2c-1.9,2.5-2.7,5.6-4.3,8.3c-2,3.4-4.6,6-8.1,7.7c-6.2,3-13.5,2.6-19.7-0.2
					c-1.8-0.8-2.9-1-3.1-3.3c-0.1-1.5,1.1-3.8,1.7-5.2c1.2-3.4,2.7-6.6,4.1-9.9c2.7-6,6-12.1,7.8-18.5C19.7,1.9,18.1,0.6,17.4,1.8
					L17.4,1.8z"/>
			</g>
		</g>
		<g>
			<path class="st1" d="M102.7,38.7c-2.4,11.4-5.9,22.5-10.4,33.3c-0.6,1.4-1.3,2.9-2.7,3.5c-1,0.4-2.1,0.4-3.2,0.2
				c-7.7-1.3-14.7-6.8-17.6-14c-3-7.3-1.9-16,2.7-22.3"/>
			<g>
				<path class="st1" d="M101.8,38.3c-3.3,6.1-4.3,13.6-6.6,20.2c-1.2,3.4-2.4,6.7-3.7,10c-0.5,1.3-1.6,4.7-3.1,5.2
					c-1.1,0.4-4.4-0.9-5.2-1.2C70.2,67.6,65.8,52,73.3,40.7c1.6-2.4-1.9-5.2-3.5-2.8c-9.3,13.3-4.6,32.2,10.8,38.4
					c2.6,1.1,6,2.2,8.8,1.4c3.9-1.1,5-5.3,6.2-8.6c2-5.1,3.7-10.4,5.2-15.6c1.4-4.8,3.1-9.9,2.8-15
					C103.6,37.5,102.2,37.5,101.8,38.3L101.8,38.3z"/>
			</g>
		</g>
		<g>
			<path class="st1" d="M17.8,55.9c15.9-7.4,38.9,6.3,43.2,22.4c0.5,2,3.7,1.1,3.4-0.9c-1.5-9.5-9.7-16.2-17.7-20.7
				c-9.3-5.3-20.3-8.5-29.7-2.1C16.4,55,17.1,56.2,17.8,55.9L17.8,55.9z"/>
		</g>
		<path class="st2" d="M27.9,3.3c0,0-14-2-10.6,1.1c13.1,11.8,27.9,21.8,44.1,28.8c12.4,5.4,26.3,9.2,39.5,6
			c0.6-0.1,1.2-0.3,1.6-0.8c1-1.3-0.7-3-2.2-3.8c-23.4-12-47-23.9-72.1-31.4"/>
		<g>
			<path class="st1" d="M20.4,3c7.5,0.4,15.1,4,22.1,6.7c7.4,2.8,14.6,5.8,21.8,9.1C71.5,22,78.6,25.5,85.6,29
				c3.5,1.8,7.1,3.5,10.6,5.3c1.5,0.8,5.8,1.8,2.9,3.8c-0.8,0.6-3.8,0.7-4.8,0.8c-14.1,1.5-28.2-4.7-40.5-10.7
				c-6.6-3.2-13-6.6-19-10.7c-2.9-2-5.7-4.1-8.4-6.4c-1.1-0.9-9-7.1-5.7-7.6C22.3,3.4,22,0.7,20.3,1C18,1.4,15,2.3,16.1,5.1
				c0.9,2.2,4.9,5.1,6.6,6.6c2.8,2.5,5.9,4.9,9,7.1c12.2,8.6,26.4,15.7,40.7,20c6.1,1.8,12.5,3.1,18.9,3c3,0,11.9,0.7,12.9-3.5
				c1-4.3-6.9-6.8-9.4-8.1c-7.6-3.9-15.2-7.7-23-11.3c-8.9-4.2-18-8.1-27.2-11.5c-7.2-2.6-16.3-6.8-24.1-5.7
				C19.7,1.8,19.6,2.9,20.4,3z"/>
		</g>
	</g>
	<g>
		<path class="st1" d="M21.1,12.4c12.9,0.2,26.5,6.3,38.1,11.4c12.4,5.4,24,12,35.9,18.4c0.8,0.5,1.4-0.9,0.6-1.4
			c-12.4-7.3-25.3-14-38.5-19.6c-6.5-2.7-13.1-5.1-19.8-7c-5.3-1.5-10.7-3.1-16.3-2.5C20.7,11.7,20.7,12.4,21.1,12.4L21.1,12.4z"/>
	</g>
	<g>
		<path class="st1" d="M50.4,10.1c-1.5,2.5-2.7,5.1-4.1,7.6c-0.4,0.8,0.8,1.3,1.3,0.5c1.4-2.5,2.8-5.1,3.5-7.8
			C51.2,10.1,50.6,9.8,50.4,10.1L50.4,10.1z"/>
	</g>
	<g>
		<path class="st1" d="M73.4,21.3c-0.7,1.1-1.2,2.2-1.6,3.4c-0.4,1.1-1,2.1-0.9,3.3c0,0.4,0.5,0.5,0.8,0.2c0.7-0.8,0.9-2,1.3-3
			c0.4-1.2,0.9-2.3,1.2-3.5C74.3,21.4,73.7,20.9,73.4,21.3L73.4,21.3z"/>
	</g>
	<g>
		<path class="st1" d="M52.2,12.6c-0.5,1.2-1,2.4-1.7,3.6c-0.5,1-1.4,1.9-1.6,3.1c0,0.2,0.2,0.4,0.4,0.3c1-0.5,1.4-1.6,1.9-2.5
			c0.7-1.4,1.2-2.7,1.6-4.2C52.9,12.5,52.3,12.2,52.2,12.6L52.2,12.6z"/>
	</g>
	<g>
		<path class="st1" d="M56.1,13.5c-0.9,1.2-1.4,2.6-2,3.9c-0.4,0.9-1.2,1.9-0.9,2.9c0.1,0.2,0.3,0.3,0.5,0.4c0.1,0,0.1,0,0.2,0
			c0.5,0.1,0.7-0.5,0.5-0.8c-0.1-0.2,1.1-2.6,1.3-3c0.4-1,0.8-2.1,1-3.2C56.7,13.4,56.3,13.3,56.1,13.5L56.1,13.5z"/>
	</g>
	<g>
		<path class="st1" d="M60.9,16c-0.7,1.2-1.3,2.5-1.8,3.7c-0.4,1-1,2.1-0.8,3.2c0,0.4,0.5,0.5,0.7,0.2c0.7-0.9,0.9-2.1,1.2-3.2
			c0.4-1.2,0.8-2.4,1.3-3.6C61.8,15.8,61.2,15.6,60.9,16L60.9,16z"/>
	</g>
	<g>
		<path class="st1" d="M63.4,24.6c1.2-2.1,2.1-4.5,3-6.7c0.3-0.8-0.9-1.3-1.3-0.5c-1.1,2.2-2.2,4.6-2.9,6.9
			C62,25,63.1,25.2,63.4,24.6L63.4,24.6z"/>
	</g>
	<g>
		<path class="st1" d="M67.7,27.2c1.1-1.9,2-3.9,2.8-5.9c0.4-0.9-0.9-1.4-1.3-0.6c-1,2-1.8,4.1-2.3,6.2
			C66.9,27.5,67.5,27.6,67.7,27.2L67.7,27.2z"/>
	</g>
	<g>
		<path class="st3" d="M35.7,46.6c-1.6-2.3-3.8-4.1-5.9-5.9c-0.9-0.8-1.8-1.5-2.7-2.3c-0.1-0.1-0.3-0.3-0.3-0.5
			c0-0.2,0.1-0.3,0.3-0.4c0.9-0.8,1.9-1.6,2.8-2.4c0.2-0.2,0.4-0.3,0.7-0.3c0.2,0,0.4,0.2,0.6,0.3c2.6,2.4,5.3,4.8,7.9,7.2
			c0.2,0.2,0.4,0.4,0.4,0.7c0,0.5-0.6,0.7-1,0.8c-1.1,0.4-2.1,1.3-2.6,2.4"/>
		<g>
			<path class="st3" d="M36,46.4c-1.2-2.1-2.9-3.7-4.7-5.3c-0.6-0.5-2.8-1.8-3.1-2.6c-0.3-0.9,0.3-1.1,0.7-1.6
				c0.2-0.2,0.5-0.4,0.7-0.6c0.4-0.7,0.8-0.8,1.3-0.2c1.2,0.4,2.4,2,3.3,2.9c1,0.9,2.9,2,3.5,3.2c0.6,1.2-0.1,1-1,1.7
				c-0.7,0.5-1.1,1.2-1.5,2c-0.5,0.8,0.9,1.4,1.4,0.6c0.8-1.4,2.2-1.5,3.1-2.5c0.3-0.3,0.5-0.8,0.5-1.2c-0.1-0.5-0.4-0.7-0.7-1.1
				c-1.1-1.3-2.7-2.4-4-3.6c-1.1-1-3.4-4.1-5.1-4c-1.3,0-3.5,2.4-4.1,3.4c-0.2,0.3-0.2,0.5,0,0.8c1,1.5,2.8,2.6,4.2,3.8
				c1.8,1.5,3.4,3.1,5,4.8C35.8,47.2,36.2,46.7,36,46.4L36,46.4z"/>
		</g>
	</g>
	<g>
		<path class="st3" d="M58.5,52.2c1,1.6,1.7,3.4,2,5.3c0,0.2,0.1,0.4,0.3,0.5c0.1,0.1,0.3,0.1,0.4,0.1c2.6-0.1,5.3-0.8,7.9-0.5
			c0.1,0,0.3,0,0.4-0.1c0.1-0.1,0.1-0.2,0-0.3c-0.1-1.2-0.2-2.3-0.3-3.5c0-0.2,0-0.4-0.1-0.6c-0.3-0.5-0.9-0.6-1.4-0.6
			c-2.7-0.1-5.4-0.2-8.1-0.3"/>
		<g>
			<path class="st3" d="M58.2,52.3c0.6,1.7,0.9,3.8,1.6,5.4c0.2,0.6,0.3,0.8,0.9,1.1c1,0.5,2.7-0.1,3.8-0.2c1.7-0.2,3.5,0.1,5.1-0.3
				c0.4-0.1,0.7-0.3,0.7-0.7c0.2-1.5,0.3-4.8-1.2-5.6c-1-0.6-2.9-0.3-4-0.4c-1.8-0.1-3.6-0.1-5.4-0.2c-1,0-1.2,1.5-0.2,1.6
				c2.1,0.1,4.2,0.2,6.3,0.2c0.8,0,2.1-0.2,2.7,0.6c0.4,0.5,0.3,3,0.2,3.6c0.2-0.2,0.5-0.5,0.7-0.7c-1,0.2-2.1,0-3.1,0
				c-1.2,0.1-2.8,0.6-3.9,0.5c-1.4-0.2-1.3-1.2-1.7-2.3c-0.4-1.1-1-2-1.7-2.9C58.5,51.7,58,51.9,58.2,52.3L58.2,52.3z"/>
		</g>
	</g>
	<g>
		<path class="st4" d="M99.4,42.8c-1.3,3.9-2.4,7.9-3.3,11.8c-0.2,0.6,0.8,0.8,1,0.3c2-3.4,3.3-7.8,3.6-11.7
			C100.7,42.4,99.6,42,99.4,42.8L99.4,42.8z"/>
	</g>
	<g>
		<path class="st4" d="M93.7,62.2c-0.6,1-1,2-1.5,3c-0.4,1-1,2.1-1.2,3.2c-0.1,0.5,0.6,0.8,1,0.4c0.7-0.9,1-2,1.5-3.1
			c0.4-1,0.9-2.1,1.1-3.2C94.7,62.1,93.9,61.8,93.7,62.2L93.7,62.2z"/>
	</g>
	<g>
		<path class="st4" d="M18.6,7.6c3.9,4.8,8.4,9.2,13.9,12.1c0.4,0.2,0.7-0.4,0.4-0.6c-4.9-3.7-9.5-7.3-13.6-11.9
			C18.8,6.8,18.3,7.2,18.6,7.6L18.6,7.6z"/>
	</g>
	<g>
		<path class="st4" d="M31.1,82.6c5.3,4.6,14.6,4.7,20.7,1.8c0.5-0.2,0.3-1-0.2-0.9c-3.6,0.7-7.1,1.1-10.7,0.7
			c-3.3-0.4-6.2-1.7-9.4-2.5C30.9,81.6,30.7,82.3,31.1,82.6L31.1,82.6z"/>
	</g>
</g>
</svg>
