<?xml version="1.0" encoding="utf-8"?>
<!-- Generator: Adobe Illustrator 22.0.1, SVG Export Plug-In . SVG Version: 6.00 Build 0)  -->
<svg version="1.1" id="Capa_1" xmlns="http://www.w3.org/2000/svg" xmlns:xlink="http://www.w3.org/1999/xlink" x="0px" y="0px"
	 viewBox="0 0 88 95.3" style="enable-background:new 0 0 88 95.3;" xml:space="preserve">
<style type="text/css">
	.st0{fill:#F0B3D0;}
	.st1{fill:#6A86B0;}
	.st2{fill:#FFFFFF;}
	.st3{fill:#56618C;}
	.st4{fill:#E892BF;}
</style>
<g>
	<g>
		<path class="st0" d="M59,37.6c-8.8,1.7-18.1,1-26.5-2.1c-2.5-0.9-5-2-6.6-4.1c-3.2-4.1-1.7-10.7,2.6-13.8
			c4.2-3.1,10.1-3.1,14.9-1.1c1-2.6,1.5-5.3,2.6-7.9s2.8-5,5.5-5.9c3.2-1.1,6.8,0.6,8.9,3.2c2.1,2.7,2.8,6.1,2.9,9.5
			c0.3,7.2-1.6,14.3-4.2,20.9"/>
		<g>
			<path class="st0" d="M59,36.5c-8.8,0.9-17.7,0.6-26.1-2.5c-2.9-1.1-6.2-2.8-7-6.1c-0.6-2.6,0.3-5.6,2-7.6c3.7-4.4,10-4,14.9-2.1
				c0.9,0.3,1.8-0.4,2-1.2C46.4,13.2,47,7,51,4.8c5.5-2.9,9.4,3.7,10.2,8.1c1.3,7.7-1.2,15.8-3.9,22.9c-0.8,2.2,2.6,3.1,3.5,1
				c3.6-9.2,8.3-24.9,0-33.1c-3-2.9-7.7-4.1-11.4-2c-5.1,2.9-5.8,9.4-7.6,14.4c0.7-0.4,1.4-0.8,2-1.2c-5.4-2-11.8-2.1-16.5,1.5
				c-3.9,3.1-6,8.7-4.1,13.5c2.3,6,10,7.9,15.7,9.1c6.8,1.4,13.7,1.4,20.4-0.3C60.5,38.4,60.3,36.4,59,36.5L59,36.5z"/>
		</g>
	</g>
	<g>
		<path class="st0" d="M42.3,36.2c0.3,5.4,3.8,9.8,6.8,14c3.6,4.8,7.4,9.5,11.6,13.8c4.7,4.9,14.7,17.6,22.8,12.1
			c7.2-4.8,4-14.3,0.6-20.3c-6.3-11.1-14.4-21.2-23.7-30c-1.6-1.5-4.1,0.9-2.5,2.4c7,6.8,13.4,14.1,18.8,22.2
			c3.5,5.2,12.1,16.5,5.7,22.4c-6.1,5.6-18.5-10-22.4-14.2c-6.2-6.8-12.4-14.1-15.9-22.7C43.7,34.8,42.2,35.2,42.3,36.2L42.3,36.2z"
			/>
	</g>
	<g>
		<path class="st0" d="M70.6,70.1c0.3-3.4,2.3-7.1,5.9-8c2.4-0.6,4.8,0.4,5.9,2.6c1.1,2.2,0.9,6-1.7,7.1c-2,0.8-4.9-0.7-4.3-3.1
			c0.4-1.6,2.2-2,3.5-2.4c0.9-0.3,1.1-1.5,0.3-2c-2.2-1.6-5,0-6.3,2.1c-1.4,2.2-1,5,0.7,6.9c4.3,4.7,10.9,0.9,11.6-4.6
			c0.5-4.6-2.5-9.3-7.4-9.7c-6.4-0.6-10.2,5.4-9.9,11.1C68.9,71.2,70.5,71.2,70.6,70.1L70.6,70.1z"/>
	</g>
	<g>
		<path class="st1" d="M14.5,69.2c-1.8-0.9-3.1-2.6-4.3-4.2c-1.4-1.8-2.7-3.6-4.1-5.4c-1.2-1.6-2.4-3.2-2.9-5.1
			c-1-3.7,1.1-7.8,4.4-9.7c3.3-2,7.4-2.1,11.1-1.1c3.7,1.1,6.9,3.2,9.9,5.6c0.4,0.3,0.8,0.7,0.9,1.2c0.1,0.6-0.2,1.2-0.5,1.7
			c-0.9,1.5-2.3,3.2-4,2.9c-0.6-0.1-1.2-0.5-1.8-0.6c-0.8-0.2-1.7,0.1-2.5,0.4c-2.3,0.8-5.1,2.1-5.3,4.6c-0.1,1.9,1.4,3.5,2.9,4.8
			c0.6,0.6,1.4,1.4,1,2.2c-0.2,0.3-0.5,0.6-0.8,0.8c-1.3,0.9-2.5,1.7-3.8,2.6"/>
		<g>
			<path class="st1" d="M15,68.5c-3.4-2.6-6.1-7.1-8.5-10.7c-2.6-4.1-2.6-8.8,1.8-11.6c3.3-2.1,7.7-1.7,11.2-0.4
				c1.6,0.6,10.2,4.6,6.9,6.9c-1.8,1.3-1.8,0-3.2,0.1c-1.5,0.1-2.6,0.3-4.1,0.9c-1.9,0.8-3.9,1.8-4.8,3.8c-0.8,1.6-0.6,3.4,0.2,5
				c0.4,0.8,1.4,1.4,1.8,2.2c1.1,0.5,1.2,1.2,0.3,2c-0.8,0.6-1.7,1.2-2.5,1.8c-1.6,1.2-0.2,3.9,1.5,2.8c2.4-1.6,6.6-3.2,5.1-6.8
				c-1.2-2.7-5-3.6-1.5-7c2.1-2,4.9-0.1,7.2-0.6c2.3-0.6,5.1-3.8,4.8-6.2c-0.3-3.2-6-5.8-8.4-7C16,40.3,6.2,40.4,2.5,48.2
				c-1.5,3.2-1.2,6.7,0.6,9.7c2.6,4.3,6.5,9.7,11,12.1C15.1,70.5,15.8,69.1,15,68.5L15,68.5z"/>
		</g>
	</g>
	<g>
		<path class="st1" d="M16.4,70.2c5.9,9.1,16.7,14.5,26.2,18.9c5.8,2.7,16.6,9.3,22.3,3c6.1-6.7-1.1-15.1-6-19.8
			C50.5,64,41,57,30.7,51.1c-1.9-1.1-3.7,1.9-1.8,3c6.5,3.8,43.2,26.6,33.1,36c-3.1,2.9-7.8,0.6-11.2-0.8c-4.1-1.7-8.1-3.4-12.1-5.4
			c-7.9-4-14.1-9-20.4-15.2C17.4,67.8,15.6,69,16.4,70.2L16.4,70.2z"/>
	</g>
	<g>
		<path class="st1" d="M53.7,90.5c0.1-3.1,0.3-7,2.8-9.2c2.1-1.9,3.8-0.4,4.9,1.6c0.4,0.8,0.8,1.6,1.1,2.5c0.6,1.6,0.3,2.5-0.9,3.8
			c-0.6,0.6-0.8,1.1-1.6,1.1c-0.6,0-1.4-0.9-1.7-1.3c-0.9-1.6,0.2-2.8,1.7-3.3c0.9-0.3,1.5-1.9,0.4-2.4c-2.2-1-4.3,0.1-5.4,2.3
			c-1.1,2.2-0.4,4.7,1.3,6.3c1.8,1.7,4.5,2.7,6.5,0.9c2-1.8,3.9-4.1,3.2-6.9c-0.9-3.4-3.4-8.7-7.7-8.4c-6.1,0.4-7.6,8.6-6.4,13.3
			C52.2,91.7,53.7,91.5,53.7,90.5L53.7,90.5z"/>
	</g>
	<g>
		<path class="st2" d="M50.1,10c0.6-1.6,2.4-2,3.9-1.7c1.1,0.2,2.1,1,3.2,1c0.5,0,0.7-0.5,0.5-0.9c-0.8-1.6-3.4-2.1-5-1.9
			c-1.9,0.2-3.5,1.2-4.2,3C48.2,10.5,49.7,10.9,50.1,10L50.1,10z"/>
	</g>
	<g>
		<path class="st2" d="M6.8,50.6c1.2-1.2,2.8-2.2,4.5-2.6c1.6-0.4,3.2,0,4.8-0.5c0.6-0.2,0.9-1,0.4-1.5c-1.5-1.6-4.2-1.3-6.1-0.8
			C8,45.8,6.2,47.1,4.8,49C3.9,50.1,5.8,51.6,6.8,50.6L6.8,50.6z"/>
	</g>
	<g>
		<path class="st2" d="M27.4,26.3c0.1-0.8,0.3-1.6,0.7-2.3c0.4-0.7,0.8-1.3,1.2-2c0.2-0.5-0.2-1-0.7-0.7c-1.6,0.7-2.5,2.8-2.8,4.5
			C25.5,26.9,27.2,27.3,27.4,26.3L27.4,26.3z"/>
	</g>
	<g>
		<path class="st3" d="M15.2,70.6c2.1-1.3,4-2.8,5.9-4.3c0.6-0.4,0.3-1.2-0.2-1.6c-1.1-0.8-2.9-1.8-3.6-3c-1.2-2.2,0.2-4,1.7-5.7
			c0.1-0.2-0.1-0.4-0.2-0.2c-1.3,1.1-3.2,2.8-2.9,4.7c0.3,2.2,2.3,4.6,4,5.9c-0.1-0.5-0.1-1-0.2-1.6c-1.9,1.4-3.8,2.8-5.5,4.4
			C13.6,70,14.4,71.1,15.2,70.6L15.2,70.6z"/>
	</g>
	<g>
		<path class="st3" d="M25.9,56.4c2.6,0.8,6-3.5,5.4-5.8c-0.1-0.5-0.8-0.7-1.2-0.3c-0.9,0.9-1.3,2.1-2.1,2.9c-0.8,0.8-2,1.3-2.5,2.3
			C25.4,55.8,25.6,56.2,25.9,56.4L25.9,56.4z"/>
	</g>
	<g>
		<path class="st4" d="M46.4,40.7c3.5,0.1,10.3,0.4,13.2-1.9c2.8-2.2,4.3-8.7,5-12c1.8-8,1.2-18.5-5.2-24.4
			c-0.7-0.7-1.7,0.3-1.1,1.1c5.3,6.7,6.7,13.8,4.7,22.1c-0.7,2.9-1.7,7.8-3.5,10.3c-2.3,3.1-9.9,2.7-13.2,3.6
			C45.6,39.7,45.7,40.7,46.4,40.7L46.4,40.7z"/>
	</g>
	<g>
		<path class="st4" d="M29.7,16.7c1.8-1.2,3.9-1.5,6.1-1.5c1,0,2,0.2,2.9,0.4c0.8,0.2,1.5,0.5,2.3,0.3c0.3-0.1,0.3-0.4,0.2-0.6
			c-1.1-1.5-4.5-1.5-6.2-1.4c-2.1,0.1-4,0.9-5.7,2.3C29.1,16.4,29.4,16.9,29.7,16.7L29.7,16.7z"/>
	</g>
</g>
</svg>
