<?xml version="1.0" encoding="utf-8"?>
<!-- Generator: Adobe Illustrator 22.0.1, SVG Export Plug-In . SVG Version: 6.00 Build 0)  -->
<svg version="1.1" id="Capa_1" xmlns="http://www.w3.org/2000/svg" xmlns:xlink="http://www.w3.org/1999/xlink" x="0px" y="0px"
	 viewBox="0 0 47.7 48.3" style="enable-background:new 0 0 47.7 48.3;" xml:space="preserve">
<style type="text/css">
	.st0{fill:#998675;}
</style>
<g>
	<path class="st0" d="M23.4,0c0.5,0,0.9,0,1.4,0c0.1,0,0.2,0,0.3,0c1.3,0.1,2.7,0.2,4,0.5c3.2,0.7,6.1,2,8.8,3.9
		c2.4,1.7,4.4,3.9,6,6.4c0.7,1.1,1.4,2.3,1.8,3.5c0.2,0.5,0.4,0.9,0.5,1.4c0.7,1.9,1,3.9,1.2,5.9c0,0.3,0,0.6,0.1,1
		c0,0.4,0,0.9,0,1.3c0,0.1,0,0.2,0,0.2c-0.1,1.2-0.2,2.4-0.4,3.6c-0.8,4-2.6,7.5-5.2,10.6c-0.9,1.1-1.9,2-3,2.9
		c-0.7,0.5-1.4,1-2.1,1.4c-0.3,0.2-0.5,0.4-0.8,0.5c-3,1.7-6.2,2.8-9.7,3.1c-3.6,0.3-7.1-0.1-10.5-1.4c-1-0.4-1.9-0.8-2.8-1.3
		c-0.1-0.1-0.2,0-0.3,0c-4.1,1.3-8.3,2.6-12.4,3.9c-0.1,0-0.2,0.1-0.3,0.1c0,0,0,0-0.1-0.1c0-0.1,0.1-0.1,0.1-0.2
		c0.6-1.6,1.1-3.2,1.7-4.9c0.8-2.4,1.6-4.8,2.4-7.2c0-0.1,0-0.2,0-0.3c-0.4-0.7-0.7-1.3-1.1-2c-1.9-4.1-2.6-8.4-2-12.9
		c0.4-3.4,1.6-6.5,3.4-9.3C6.9,6.9,10.3,4,14.5,2.1c1.6-0.8,3.4-1.3,5.1-1.6c0.1,0,0.2-0.1,0.2,0c0.1,0,0.2-0.1,0.3-0.1
		c0.2,0,0.3-0.1,0.5-0.1c0.6-0.1,1.3-0.1,1.9-0.2C22.9,0,23.2,0,23.4,0z M5.9,41.7c0.1,0,0.2,0,0.2-0.1c2.4-0.8,4.7-1.5,7.1-2.3
		c0.1,0,0.2,0,0.3,0c0.9,0.6,1.9,1.1,2.9,1.5c0.1,0,0.2,0.1,0.3,0.2c0.1,0,0.1,0,0.2,0c0.2,0.1,0.5,0.2,0.7,0.3c2.8,1,5.7,1.3,8.7,1
		c1.3-0.1,2.5-0.4,3.8-0.8c2.9-0.9,5.4-2.4,7.6-4.4c2.2-2.1,3.9-4.6,5-7.5c1-2.7,1.3-5.5,1.1-8.3c-0.2-2.4-0.8-4.6-1.9-6.7
		c-1.5-3.1-3.7-5.6-6.5-7.5c-2.7-1.9-5.7-3-8.9-3.3c-1.9-0.2-3.9-0.1-5.8,0.2C16.5,4.9,13,6.7,10.1,9.7c-0.9,0.9-1.6,1.8-2.3,2.9
		C5.5,16,4.5,19.8,4.6,23.9c0.1,1.7,0.3,3.3,0.8,4.9c0.6,2,1.5,3.9,2.8,5.6c0.1,0.1,0.2,0.2,0.1,0.3c-0.7,2-1.4,4-2.1,6.1
		C6.1,41.1,6,41.4,5.9,41.7z"/>
	<path class="st0" d="M30.6,34.1c-1,0-1.7-0.2-2.5-0.5c-0.5-0.2-1.1-0.3-1.6-0.5c-0.6-0.2-1.2-0.4-1.8-0.7c-0.6-0.3-1.2-0.5-1.7-0.8
		c-1.3-0.7-2.4-1.5-3.5-2.6c-0.6-0.6-1.2-1.1-1.7-1.7c-1-1-1.9-2.2-2.7-3.4c-0.4-0.7-0.9-1.3-1.3-2.1c-0.6-1.1-1-2.3-1.1-3.7
		c0-1.1,0.2-2.2,0.7-3.2c0.4-0.7,0.9-1.4,1.5-1.9c0.5-0.4,1-0.6,1.7-0.5c0.3,0,0.7,0,1,0c0.4,0,0.6,0.1,0.8,0.4
		c0.2,0.3,0.3,0.6,0.5,1c0.6,1.3,1.1,2.6,1.7,3.9c0.1,0.3,0.2,0.6,0,0.9c-0.2,0.4-0.4,0.7-0.7,1c-0.3,0.4-0.6,0.7-0.9,1
		c-0.3,0.3-0.3,0.6-0.1,1c1.7,2.9,4.1,5.2,7.3,6.5c0.2,0.1,0.5,0.2,0.7,0.3c0.4,0.2,0.7,0.1,0.9-0.2c0.6-0.8,1.2-1.5,1.9-2.3
		c0.3-0.3,0.5-0.5,1-0.3c0.3,0.1,0.6,0.2,0.9,0.3c1.3,0.6,2.6,1.3,3.9,1.9c0.5,0.2,0.7,0.5,0.6,1c0,0.8-0.2,1.5-0.5,2.2
		c-0.2,0.4-0.4,0.7-0.7,1c-0.9,0.8-1.8,1.4-3,1.6C31.4,34,30.9,34.1,30.6,34.1z"/>
</g>
</svg>
